<?xml version="1.0" encoding="utf-8"?>
<!-- Generator: Adobe Illustrator 26.0.1, SVG Export Plug-In . SVG Version: 6.00 Build 0)  -->
<svg version="1.1" id="Layer_1" xmlns="http://www.w3.org/2000/svg" xmlns:xlink="http://www.w3.org/1999/xlink" x="0px" y="0px"
	 viewBox="0 0 60 60" style="enable-background:new 0 0 60 60;" xml:space="preserve">
<style type="text/css">
	.st0{fill:#FFFFFF;stroke:#F6A318;stroke-miterlimit:10;}
</style>
<g transform="translate(-612 -2195)">
	<path class="st0" d="M670.6,2222h-19.7c-0.6,0-1,0.4-1,1v30.5c0,0.6,0.4,1,1,1h19.7c0.6,0,1-0.4,1-1V2223
		C671.6,2222.4,671.2,2222,670.6,2222z M656.8,2252.6v-4.9h7.9v4.9H656.8z M669.6,2252.6h-3v-5.9c0-0.6-0.4-1-1-1h-9.9
		c-0.6,0-1,0.4-1,1v5.9h-3V2224h17.7V2252.6z"/>
	<path class="st0" d="M654.8,2233.9h3.9c0.6,0,1-0.4,1-1v-5.9c0-0.6-0.4-1-1-1h-3.9c-0.6,0-1,0.4-1,1v5.9
		C653.8,2233.5,654.2,2233.9,654.8,2233.9z M655.8,2227.9h2v3.9h-2V2227.9z"/>
	<path class="st0" d="M662.7,2233.9h3.9c0.6,0,1-0.4,1-1v-5.9c0-0.6-0.4-1-1-1h-3.9c-0.6,0-1,0.4-1,1v5.9
		C661.7,2233.5,662.1,2233.9,662.7,2233.9z M663.7,2227.9h2v3.9h-2V2227.9z"/>
	<path class="st0" d="M654.8,2243.7h3.9c0.6,0,1-0.4,1-1v-5.9c0-0.6-0.4-1-1-1h-3.9c-0.6,0-1,0.4-1,1v5.9
		C653.8,2243.3,654.2,2243.7,654.8,2243.7z M655.8,2237.8h2v3.9h-2V2237.8z"/>
	<path class="st0" d="M662.7,2243.7h3.9c0.6,0,1-0.4,1-1v-5.9c0-0.6-0.4-1-1-1h-3.9c-0.6,0-1,0.4-1,1v5.9
		C661.7,2243.3,662.1,2243.7,662.7,2243.7z M663.7,2237.8h2v3.9h-2V2237.8z"/>
	<path class="st0" d="M613.4,2254.5h33.5c0.6,0,1-0.4,1-1v-3.9c0-0.6-0.4-1-1-1h-14.8v-37.4h27.6v3.2c-1.6,0.6-2.4,2.3-1.8,3.7
		c0.6,1.6,2.3,2.4,3.7,1.8c1.2-0.4,2-1.6,2-2.8h-2c0,0.6-0.4,1-1,1s-1-0.4-1-1c0-0.6,0.4-1,1-1s1-0.4,1-1v-3.9h3v-2h-3.7l-7.4-3h7.2
		v-2h-12.1l-22-8.8c-0.4-0.2-0.9,0-1.2,0.3l-6.6,8.5h-6.4v2h3.9v3h-3.9v2h5.9v37.4h-4.9c-0.6,0-1,0.4-1,1v3.9
		C612.4,2254.2,612.8,2254.5,613.4,2254.5z M628.2,2206.3v1.9l-2.2-1.9H628.2z M631.2,2209.2h-1v-1.9l2.2,1.9H631.2z M625.6,2242.7
		h4.5v4.5L625.6,2242.7z M628.8,2225h-4.5v-4.5L628.8,2225z M628.8,2232.9h-4.5v-4.5L628.8,2232.9z M628.8,2240.8h-4.5v-4.5
		L628.8,2240.8z M625.6,2234.8h4.5v4.5L625.6,2234.8z M625.6,2227h4.5v4.5L625.6,2227z M625.6,2219.1h4.5v4.5L625.6,2219.1z
		 M624.3,2217.1v-4.5l4.5,4.5H624.3z M643.8,2206.3h2.2v1.9L643.8,2206.3z M644.2,2209.2H642v-1.9L644.2,2209.2z M640,2208.1
		l-2.2-1.9h2.2V2208.1z M638.3,2209.2h-2.2v-1.9L638.3,2209.2z M634.1,2208.1l-2.2-1.9h2.2V2208.1z M626.4,2209.2h-2.2v-1.9
		L626.4,2209.2z M622.3,2208.1l-2.2-1.9h2.2V2208.1z M624.3,2244.1l4.5,4.5h-4.5V2244.1z M630.2,2215.7l-4.5-4.5h4.5V2215.7z
		 M655.6,2209.2h-7.7v-3h0.3L655.6,2209.2z M627.2,2204.3v-6.4l16.1,6.4H627.2z M625.3,2199.3v5h-3.9L625.3,2199.3z M618.4,2207.4
		l2.2,1.9h-2.2V2207.4z M620.3,2211.2h2v37.4h-2V2211.2z M614.4,2250.6h31.5v2h-31.5V2250.6z"/>
</g>
</svg>
