<?xml version="1.0" encoding="utf-8"?>
<!-- Generator: Adobe Illustrator 26.0.1, SVG Export Plug-In . SVG Version: 6.00 Build 0)  -->
<svg version="1.1" id="Layer_1" xmlns="http://www.w3.org/2000/svg" xmlns:xlink="http://www.w3.org/1999/xlink" x="0px" y="0px"
	 viewBox="0 0 68.6 68.6" style="enable-background:new 0 0 68.6 68.6;" xml:space="preserve">
<style type="text/css">
	.st0{fill:#F6A318;}
</style>
<g transform="translate(-91.214 -152.155)">
	<path class="st0" d="M124.9,152.2c-0.7,5.7-0.5,7.4-5.4,8c4.8,0.8,4.9,2.5,5.4,8c0.7-5.5,0.5-7.2,5.4-8
		C125.4,159.6,125.6,157.9,124.9,152.2z M110.7,157.4c-2.4,20.7-1.8,26.8-19.5,29.1c17.5,3.1,17.1,9.1,19.5,29.1
		c1.8-19.9,2.1-26.2,19.5-29.1C112.5,184.2,113.3,178.1,110.7,157.4z M149.3,157.9c-1.3,11.1-1,14.5-10.5,15.7
		c9.5,1.7,9.2,4.9,10.5,15.7c1-10.7,1.1-14.2,10.5-15.7C150.2,172.4,150.6,169.1,149.3,157.9L149.3,157.9z M100.1,158.6
		c-0.5,4.1-0.3,5.3-3.8,5.7c3.4,0.6,3.5,1.8,3.8,5.7c0.5-3.9,0.4-5.1,3.8-5.7C100.4,163.8,100.6,162.6,100.1,158.6z M132.8,171.9
		c-0.5,4.2-0.3,5.4-3.6,5.9c3.2,0.6,3.2,1.9,3.6,5.9c0.4-4.1,0.4-5.3,3.6-5.9C133.1,177.4,133.2,176.1,132.8,171.9L132.8,171.9z
		 M157.7,187.5c-0.3,2.4-0.2,3.2-2.1,3.4c1.9,0.3,1.9,1.1,2.1,3.4c0.3-2.4,0.2-3.1,2.1-3.4C157.9,190.6,158,189.9,157.7,187.5
		L157.7,187.5z M139.7,189.2c-0.9,7.8-0.7,10.1-7.4,11c6.6,1.2,6.5,3.4,7.4,11c0.7-7.5,0.8-9.9,7.4-11
		C140.4,199.4,140.7,197.1,139.7,189.2L139.7,189.2z M102.4,195c-0.3,2.4-0.2,3.2-2.1,3.4c1.9,0.3,1.9,1.1,2.1,3.4
		c0.3-2.4,0.2-3.1,2.1-3.4C102.6,198.1,102.6,197.4,102.4,195L102.4,195z M125.6,198c-0.3,2.4-0.2,3.2-2.1,3.4
		c1.9,0.3,1.9,1.1,2.1,3.4c0.3-2.4,0.2-3.1,2.1-3.4C125.8,201.2,125.8,200.5,125.6,198L125.6,198z M95.1,202.7
		c-0.5,4.1-0.4,5.3-3.8,5.7c3.4,0.6,3.5,1.8,3.8,5.7c0.5-3.9,0.4-5.1,3.8-5.7C95.4,208,95.6,206.8,95.1,202.7L95.1,202.7z
		 M155.6,206.9c-0.5,4.9-0.4,6.4-4.2,6.9c3.7,0.7,3.8,2.2,4.2,6.9c0.5-4.8,0.4-6.2,4.2-6.9C156,213.3,156.1,211.8,155.6,206.9
		L155.6,206.9z M120.2,208.4c-0.4,3.1-0.3,4.1-3,4.4c2.6,0.4,2.7,1.4,3,4.4c0.4-3,0.3-3.9,3-4.4
		C120.5,212.5,120.6,211.6,120.2,208.4L120.2,208.4z"/>
</g>
</svg>
