<?xml version="1.0" encoding="utf-8"?>
<!-- Generator: Adobe Illustrator 26.0.1, SVG Export Plug-In . SVG Version: 6.00 Build 0)  -->
<svg version="1.1" id="Layer_1" xmlns="http://www.w3.org/2000/svg" xmlns:xlink="http://www.w3.org/1999/xlink" x="0px" y="0px"
	 viewBox="0 0 62.9 60" style="enable-background:new 0 0 62.9 60;" xml:space="preserve">
<style type="text/css">
	.st0{fill:#F6A318;}
</style>
<g transform="translate(0 -0.467)">
	<path class="st0" d="M31.2,60.5c-2.2,0-4.4-0.4-6.4-1.3L15.1,55c-3.5-1.5-7.2-2.5-11-2.9l-3.2-0.3c-0.5-0.1-0.9-0.5-0.9-1v-10
		c0-0.2,0.1-0.4,0.2-0.6c0.2-0.3,5.9-7.8,14.7-5.8c4,0.9,7.8,2.5,11.3,4.6c1.8,1.1,3.9,1.7,6,1.7h9.7c1.6,0,3.1,0.8,4,2.2l8.3-9.6
		c1.7-2.2,4.3-3.5,7-3.5h0.6c0.6,0,1,0.5,1,1c0,0.1,0,0.3-0.1,0.4l-7.6,17.2c-1.7,3.8-5,6.6-9,7.6l-1.3,0.3l-7.7,3.1
		C35.3,60.1,33.3,60.5,31.2,60.5L31.2,60.5z M2,49.8L4.3,50c4,0.4,7.9,1.4,11.6,3l9.7,4.2c3.4,1.5,7.3,1.5,10.8,0.2l7.8-3.1h0.1
		l1.4-0.3c3.4-0.9,6.2-3.2,7.6-6.4l6.9-15.7c-1.8,0.3-3.4,1.2-4.5,2.7l-9.2,10.7v0.1c0,2.6-2.1,4.7-4.7,4.7H28.4
		c-1.8,0-3.5,0.3-5.2,0.8l-0.4-1l-0.3-1h0.1c1.9-0.6,3.8-0.9,5.8-0.9h13.5c1.4,0,2.6-1.2,2.6-2.6c0-1.4-1.2-2.6-2.6-2.6h-9.7
		c-2.5,0-5-0.7-7.1-2c-3.3-2-6.9-3.5-10.7-4.4C7.8,34.9,3,40,2,41.2L2,49.8L2,49.8z"/>
	<path class="st0" d="M40.4,29.5c-1.9-0.1-3.7-0.6-5.3-1.5c-0.2-0.1-0.4-0.3-0.5-0.6c-0.1-0.2-1.9-5.5,1-9.4
		c2.1-2.8,6.1-4.1,11.8-3.8c0.5,0,0.9,0.4,1,1c0,0.4,0.4,10-4.5,13.2C42.8,29.2,41.6,29.5,40.4,29.5L40.4,29.5z M36.4,26.4
		c2.7,1.3,4.8,1.4,6.4,0.4c2.9-1.9,3.5-7.5,3.5-10.5c-4.5-0.1-7.6,0.9-9.1,3C35.3,21.8,36.1,25.2,36.4,26.4L36.4,26.4z"/>
	<path class="st0" d="M24.7,16.1c-2,0.1-4.1-0.6-5.7-1.7c-3.1-2.3-4.5-6.6-4.2-12.9c0-0.5,0.4-0.9,1-1c0.4,0,10.9-0.6,14.5,4.7
		c1.6,2.5,1.5,5.7-0.4,9.6c-0.1,0.2-0.3,0.4-0.6,0.5C27.7,15.8,26.2,16.1,24.7,16.1L24.7,16.1z M28.8,14.4L28.8,14.4L28.8,14.4z
		 M16.7,2.5c-0.1,5,1.1,8.4,3.4,10.2c2.8,2.1,6.7,1.2,7.9,0.8c1.4-3,1.5-5.4,0.3-7.2C26.3,3.1,19.9,2.5,16.7,2.5z"/>
	<path class="st0" d="M32.7,42.3L32.7,42.3c-0.6-0.1-1.1-0.5-1-1.1c0.1-1.2,0.2-2.3,0.3-3.4c0.4-7.3,0.2-24.1-10.5-28.8
		c-0.5-0.2-0.8-0.8-0.6-1.3s0.8-0.8,1.3-0.6c0,0,0,0,0.1,0c6.3,2.8,10.2,9.6,11.4,19.8c0.1,0.9,0.2,1.8,0.2,2.7
		c2.8-7.1,7.1-9.6,7.4-9.8c0.5-0.3,1.1-0.1,1.4,0.4c0.3,0.5,0.1,1.1-0.4,1.4c-0.1,0.1-6.7,4-8.4,16.2c-0.1,2.1-0.3,3.4-0.3,3.5
		C33.6,41.9,33.2,42.3,32.7,42.3L32.7,42.3z"/>
</g>
</svg>
