<?xml version="1.0" encoding="utf-8"?>
<!-- Generator: Adobe Illustrator 26.0.1, SVG Export Plug-In . SVG Version: 6.00 Build 0)  -->
<svg version="1.1" id="Layer_1" xmlns="http://www.w3.org/2000/svg" xmlns:xlink="http://www.w3.org/1999/xlink" x="0px" y="0px"
	 viewBox="0 0 63 34.9" style="enable-background:new 0 0 63 34.9;" xml:space="preserve">
<style type="text/css">
	.st0{fill:#F6A318;}
</style>
<path class="st0" d="M63,32.3l-1.4-7.6H52v-1.3h9.5l-1.4-7.6H52v-2.5H24.7v3.2h-7.2c-2.5,0-3.1-0.8-3.1-0.9
	c-0.1-0.1-0.5-0.9-0.5-3.2c0-3-0.1-5.8-2-8.3C9.9,1.3,6.4,0,1.1,0H0v7.6h1.1c3.5,0,4.4,0.5,4.7,0.9c0,0.1,0,0.2,0.1,0.2
	S2.8,8.2,1.1,8.3H0v7.6h1.1c3.5,0,4.4,0.6,4.7,0.9c0.6,0.8,0.6,2.8,0.6,4c0,2.5,0.3,5.5,2.3,7.9c1.9,2.2,4.7,3.1,8.8,3.1h7.2V35H52
	v-2.5h11V32.3z M59.8,26.6l0.6,3.2H52v-3.2H59.8z M58.3,17.8l0.6,3.2h-7v-3.2H58.3z M2.5,13.3V10c1.4,0.1,2.7,0.3,4,0.7
	c0,0.5-0.1,1.1-0.1,1.6c0,0.6,0.1,1.3,0.2,2C5.4,13.6,4,13.2,2.5,13.3L2.5,13.3z M8.4,9.2L8.4,9.2C8.3,8.4,8.1,7.7,7.7,7
	C6.8,5.8,4.4,5.1,2.5,5V1.8C6.3,2,8.9,3,10.4,5.1c1.5,2,1.5,4.6,1.5,7.2c0,2.2,0.3,3.7,1,4.6c0.8,0.9,2.3,1.5,4.7,1.5h7.2v3.2h-7.2
	c-1.5,0-3-0.2-4.4-0.7c-1.2-0.4-2.2-1-3-2l0,0c-1.2-2-1.8-4.2-1.7-6.5c0-0.8,0-1.6-0.1-2.5L8.4,9.2z M24.7,29.8h-7.2
	c-3.4,0-5.7-0.9-7.2-2.5c-1.6-1.8-1.8-4.5-1.8-6.6V20c0.1,0.1,0.1,0.2,0.2,0.3c0.9,1,2,1.7,3.2,2.2c0.1,1,0.4,2.1,0.9,3
	c1.3,1.2,3,1.9,4.8,1.8h7.2L24.7,29.8z M17.5,24.7c-2.5,0-3.1-0.8-3.1-0.8c-0.1-0.2-0.2-0.4-0.2-0.6c1.1,0.1,2.2,0.2,3.4,0.1h7.2
	v1.3H17.5z M50.1,33H26.6V15.2h23.5V33L50.1,33z"/>
</svg>
