<?xml version="1.0" encoding="utf-8"?>
<!-- Generator: Adobe Illustrator 26.0.1, SVG Export Plug-In . SVG Version: 6.00 Build 0)  -->
<svg version="1.1" id="Layer_1" xmlns="http://www.w3.org/2000/svg" xmlns:xlink="http://www.w3.org/1999/xlink" x="0px" y="0px"
	 viewBox="0 0 47.9 56.8" style="enable-background:new 0 0 47.9 56.8;" xml:space="preserve">
<style type="text/css">
	.st0{fill:#F6A318;}
</style>
<g transform="translate(-652 -279.8)">
	<path class="st0" d="M687.7,305.1c0.4,0,0.7-0.3,0.8-0.7l0.6-4.1c0.1-0.4-0.2-0.8-0.7-0.9c-0.4-0.1-0.8,0.2-0.9,0.7l-0.6,4.1
		c-0.1,0.4,0.2,0.8,0.7,0.9l0,0H687.7z"/>
	<path class="st0" d="M682.7,300.7c-0.4,0.2-0.6,0.6-0.4,1l0,0l1.1,2.6c0.2,0.4,0.6,0.6,1,0.4s0.6-0.6,0.4-1l0,0l-1.1-2.6
		C683.6,300.7,683.1,300.5,682.7,300.7L682.7,300.7z"/>
	<path class="st0" d="M691.8,306l1.6-1.9c0.3-0.3,0.3-0.8-0.1-1.1c-0.3-0.3-0.8-0.3-1.1,0.1l0,0l-1.6,1.9c-0.3,0.3-0.3,0.8,0.1,1.1
		C691,306.4,691.5,306.4,691.8,306L691.8,306z"/>
	<path class="st0" d="M699.3,312.4c0.5-0.2,0.7-0.7,0.5-1.1c-0.2-0.5-0.7-0.7-1.1-0.5c-1,0.4-1.7,0.8-2.4,1.1
		c-0.2,0.1-0.5,0.2-0.7,0.3c-2-3.1-6.1-4.9-10.9-5h-0.2c-4.6,0-8.7,1.7-10.7,4.5c-0.7-0.3-1.4-0.4-2.2-0.2c2-4.8,1.4-8.2,0.9-11.6
		c-0.4-1.8-0.5-3.6-0.5-5.4c2.2,1.5,9.2,1.6,11.7,0.5c0.1,0,0.2-0.1,0.3-0.2c3.8-4.3,3.8-8.7-0.2-13.6c-0.1-0.2-0.3-0.3-0.5-0.3
		c-5.3-1.2-10.3-2-15,0.4c-0.1,0-0.1,0.1-0.2,0.1c-6.5,5.5-10.6,14.7-14.9,25.3c-2.4,6-0.8,12.2,0.8,18.3c0.3,1.1,0.6,2.3,0.9,3.5
		c0.1,0.3,0.3,0.6,0.6,0.6c0.3,0.1,0.5,0.2,0.8,0.2c1.6,0.7,3.5,0.7,5.1-0.1c7.3,4.7,15.7,7.2,24.4,7.2c2.1,0,4.1-0.1,6.2-0.4
		c0.5,0,0.8-0.5,0.8-1s-0.5-0.8-1-0.8c0,0,0,0-0.1,0c-10.4,1.5-21-1-29.8-6.8c-0.3-0.2-0.6-0.2-0.9,0c-1.3,0.7-2.8,0.8-4.2,0.2
		l-0.4-0.1c-0.3-1-0.5-2-0.8-3c-1.6-6-3.1-11.7-0.9-17.2c4.2-10.3,8.1-19.3,14.3-24.6c4-2,8.6-1.3,13.4-0.2c3.2,4,3.2,7.4,0.2,10.9
		c-2.3,1-8.4,0.5-9.6-0.3c-0.1-0.9,0-2.8,0-3.2c0-0.5-0.4-0.9-0.8-0.9c-0.2,0-0.3,0-0.5,0.1c-0.3,0.1-0.4,0.2-0.4,0.5
		c-1.7,4.3-1.2,7.5-0.6,10.6c0.6,3.5,1.2,6.9-1.5,12.1c-0.2,0.4,0,1,0.4,1.2c0.2,0.1,0.4,0.1,0.6,0.1l0.4-0.1c1.6-0.3,2-0.4,2.5-0.1
		c-0.1,1.9,0.6,3.9,1.9,5.3c0.4,0.3,0.9,0.3,1.3,0s0.3-0.9,0-1.3l0,0c-1.4-1.3-1.4-3.5-1.3-4.1c1.5-2.6,5.2-4.3,9.5-4.3h0.2
		c4.5,0,8.4,1.9,9.8,4.8c0.2,0.4,0.7,0.6,1.1,0.4c0.5-0.2,1-0.5,1.5-0.7C697.7,313.1,698.4,312.8,699.3,312.4z"/>
	<circle class="st0" cx="695.5" cy="333.9" r="0.9"/>
	<circle class="st0" cx="661.7" cy="304.6" r="0.9"/>
	<path class="st0" d="M660.3,307.3c-0.5-0.1-1,0.2-1.1,0.6l0,0c-0.1,0.3-0.2,0.7-0.3,1c-0.5,1.5-1,3.2-0.5,4.8
		c0.1,0.6,0.2,1.1,0.2,1.6c0.2,2.5,0.9,5,2,7.2l0.1,0.2l0.2,0.1c1.8,1.1,3.7,2,5.7,2.9c0.5,0.2,1,0,1.1-0.5c0.2-0.4,0-0.9-0.4-1.1
		c-1.8-0.8-3.5-1.7-5.2-2.6c-1-2-1.6-4.2-1.8-6.4c-0.1-0.5-0.2-1.1-0.3-1.7v-0.2c-0.4-1,0.1-2.5,0.5-3.8c0.1-0.4,0.2-0.8,0.3-1.1
		C661,307.9,660.7,307.5,660.3,307.3L660.3,307.3z"/>
</g>
</svg>
