<?xml version="1.0" encoding="utf-8"?>
<!-- Generator: Adobe Illustrator 26.0.1, SVG Export Plug-In . SVG Version: 6.00 Build 0)  -->
<svg version="1.1" id="Layer_1" xmlns="http://www.w3.org/2000/svg" xmlns:xlink="http://www.w3.org/1999/xlink" x="0px" y="0px"
	 viewBox="0 0 62.3 62.3" style="enable-background:new 0 0 62.3 62.3;" xml:space="preserve">
<style type="text/css">
	.st0{fill:#F6A318;}
</style>
<g transform="translate(0)">
	<path class="st0" d="M62.3,35.6c0-0.5-0.2-1-0.6-1.2L53,29.9l8.5-2.6c0.6-0.2,1-0.9,0.8-1.5c-0.1-0.3-0.3-0.6-0.6-0.7l-18.9-9.8
		l-3.6-4.5c-0.3-0.4-0.9-0.7-1.4-0.7l0,0c-0.6,0-1.1,0.3-1.4,0.7l-3,3.9l-12.2,3.8V16h3.2c0.5,0,0.9-0.3,1.1-0.7
		c0.2-0.5,0.1-1-0.3-1.3l-8.3-8.2c-0.5-0.5-1.2-0.5-1.7,0L6.9,14c-0.3,0.3-0.5,0.9-0.3,1.3C6.8,15.8,7.2,16,7.7,16H11v5.6l-10.1,3
		c-0.6,0.2-1,0.9-0.8,1.5c0.1,0.3,0.3,0.6,0.6,0.7l8.6,4.5L0.9,34c-0.6,0.2-1,0.9-0.8,1.5c0.1,0.3,0.3,0.6,0.6,0.7l8.6,4.5l-8.4,2.6
		c-0.6,0.2-1,0.9-0.8,1.5c0.1,0.3,0.3,0.6,0.6,0.7L11,50.9v6.3c0,0.5,0.3,0.9,0.7,1.1l7.8,3.9c0.4,0.2,0.8,0.2,1.2-0.1
		c0.4-0.2,0.6-0.6,0.6-1v-4.9l2.1,1.1c0.3,0.1,0.6,0.2,0.9,0.1l13.9-4.3c0.6-0.2,1-0.9,0.8-1.5s-0.9-1-1.5-0.8L24,55L4.4,44.8
		l6.8-2.1v2.5c0,0.7,0.6,1.2,1.3,1.2c0.6,0,1.2-0.5,1.2-1.2V43l5.1,2.7v2.7c0,0.7,0.6,1.2,1.3,1.2c0.6,0,1.2-0.5,1.2-1.2V47l2.1,1.1
		c0.3,0.1,0.6,0.2,0.9,0.1l25.5-7.8l8.2,4.3L46.7,48c-0.6,0.2-1,0.9-0.8,1.5c0.2,0.5,0.6,0.9,1.2,0.9c0.1,0,0.2,0,0.4-0.1l14-4.3
		c0.6-0.2,1-0.9,0.8-1.5c-0.1-0.3-0.3-0.6-0.6-0.7L53,39.3l8.5-2.6C62,36.5,62.3,36.1,62.3,35.6L62.3,35.6z M13.4,52.2l5.4,2.8v4.2
		l-5.4-2.7V52.2z M34.6,17L34.6,17l3.2-4.1l3.2,4c0,0,0,0.1,0.1,0.1c0.6,0.7,1,1.7,1,2.6c0,2.3-1.9,4.1-4.2,4.1s-4.1-1.9-4.1-4.1
		C33.7,18.7,34,17.8,34.6,17z M4.4,26.1l6.6-2V26c0,0.7,0.6,1.2,1.3,1.2c0.6,0,1.2-0.5,1.2-1.2V14.7c0-0.7-0.5-1.2-1.2-1.2l0,0h-1.4
		l5.3-5.3l5.3,5.3H20c-0.7,0-1.2,0.5-1.2,1.2V29c0,0.7,0.6,1.2,1.3,1.2c0.6,0,1.2-0.5,1.2-1.2v-8.1l10.3-3.2
		c-0.2,0.6-0.3,1.2-0.3,1.9c0,3.7,3,6.6,6.7,6.5c3.6,0,6.5-2.9,6.5-6.5c0-0.3,0-0.5,0-0.8l13.5,7L24,36.3l-5.8-3L13,30.6l0,0
		L4.4,26.1z M49.5,37.8L49.5,37.8L24,45.6L4.4,35.4l6.8-2.1v2.3c0,0.7,0.6,1.2,1.3,1.2c0.6,0,1.2-0.5,1.2-1.2v-2l3.2,1.7l1.8,1V39
		c0,0.7,0.6,1.2,1.3,1.2c0.6,0,1.2-0.5,1.2-1.2v-1.4l2.1,1.1l0,0c0,0,0.1,0,0.1,0.1l0,0h0.1l0,0h0.1l0,0h0.1l0,0c0.1,0,0.1,0,0.2,0
		l0,0c0.1,0,0.1,0,0.2,0L49.6,31l8.2,4.3L49.5,37.8z"/>
	<path class="st0" d="M42.4,49.1c-0.7,0-1.3,0.6-1.3,1.3s0.6,1.3,1.3,1.3s1.3-0.6,1.3-1.3c0-0.3-0.1-0.7-0.4-0.9
		C43.1,49.3,42.7,49.1,42.4,49.1z"/>
	<path class="st0" d="M51.4,17.5c3.9,0,7.1-3.2,7.1-7.1c0-1.6-0.6-3.2-1.6-4.5l0,0l-4-5.1C52.6,0.3,52,0,51.4,0l0,0
		c-0.6,0-1.2,0.3-1.5,0.8l-4,5.1l0,0c-2.5,3.1-2,7.5,1.1,10C48.2,16.9,49.8,17.5,51.4,17.5L51.4,17.5z M47.9,7.5L47.9,7.5L51.4,3
		l3.4,4.4c0,0,0,0.1,0.1,0.1c1.6,1.9,1.3,4.8-0.7,6.3s-4.8,1.3-6.3-0.7c-0.6-0.8-1-1.8-1-2.8S47.3,8.3,47.9,7.5L47.9,7.5z"/>
</g>
</svg>
