<?xml version="1.0" encoding="utf-8"?>
<!-- Generator: Adobe Illustrator 26.0.1, SVG Export Plug-In . SVG Version: 6.00 Build 0)  -->
<svg version="1.1" id="Layer_1" xmlns="http://www.w3.org/2000/svg" xmlns:xlink="http://www.w3.org/1999/xlink" x="0px" y="0px"
	 viewBox="0 0 58 57.4" style="enable-background:new 0 0 58 57.4;" xml:space="preserve">
<style type="text/css">
	.st0{fill:#F6A318;}
</style>
<g transform="translate(-1134 -1689)">
	<path class="st0" d="M1161.2,1737.1c0.6,0,1.2-0.5,1.2-1.2l0,0v-4.5c0-0.6-0.5-1.2-1.2-1.2c-0.6,0-1.2,0.5-1.2,1.2v4.5
		C1160,1736.6,1160.6,1737.1,1161.2,1737.1z"/>
	<path class="st0" d="M1164.8,1737.1c0.6,0,1.2-0.5,1.2-1.2l0,0v-4.5c0-0.6-0.5-1.2-1.2-1.2c-0.6,0-1.2,0.5-1.2,1.2v4.5
		C1163.6,1736.6,1164.2,1737.1,1164.8,1737.1z"/>
	<path class="st0" d="M1172,1737.1c0.6,0,1.2-0.5,1.2-1.2l0,0v-4.5c0-0.6-0.5-1.2-1.2-1.2c-0.6,0-1.2,0.5-1.2,1.2v4.5
		C1170.8,1736.6,1171.3,1737.1,1172,1737.1z"/>
	<path class="st0" d="M1175.6,1737.1c0.6,0,1.2-0.5,1.2-1.2l0,0v-4.5c0-0.6-0.5-1.2-1.2-1.2c-0.6,0-1.2,0.5-1.2,1.2v4.5
		C1174.4,1736.6,1174.9,1737.1,1175.6,1737.1z"/>
	<path class="st0" d="M1168.4,1737.1c0.6,0,1.2-0.5,1.2-1.2l0,0v-4.5c0-0.6-0.5-1.2-1.2-1.2c-0.6,0-1.2,0.5-1.2,1.2v4.5
		C1167.2,1736.6,1167.8,1737.1,1168.4,1737.1z"/>
	<path class="st0" d="M1179.2,1737.1c0.6,0,1.2-0.5,1.2-1.2l0,0v-4.5c0-0.6-0.5-1.2-1.2-1.2c-0.6,0-1.2,0.5-1.2,1.2v4.5
		C1178,1736.6,1178.5,1737.1,1179.2,1737.1z"/>
	<path class="st0" d="M1190.2,1740.6v-23.3c0-0.4-0.2-0.8-0.6-1s-0.8-0.2-1.2,0l-10.8,6v-7.5c0-0.4-0.2-0.7-0.5-0.9
		c-0.3-0.2-0.7-0.3-1-0.2l-4.8,1.5l-0.6-8.5c-0.1-1.1-0.6-2.2-1.4-3c-0.6-0.5-1.4-0.9-2.1-1c-0.1-0.3-0.1-0.5,0-0.8
		c0.1-0.1,0.1-0.2,0.6-0.3l1-0.2c1.7-0.3,2.9-0.5,3.4-2.5v-0.2c0.1-0.3,0.1-0.5,0.2-0.8l0.8-0.1c0.6-0.1,1.1-0.6,1.1-1.3
		s-0.6-1.1-1.3-1.1l0,0c-2.1,0.2-2.6,0.9-3,2.6v0.2c-0.1,0.5-0.1,0.5-1.6,0.8l-1.1,0.2c-0.9,0.2-1.6,0.7-2.1,1.5
		c-0.3,0.6-0.4,1.3-0.3,2c-1.8,0.5-3.1,2.1-3.2,3.9l-0.9,11.7l-2.4,0.7l-1.5-19c-0.2-2-1.7-3.7-3.7-4.1c0-0.2,0-0.4,0.1-0.6
		c0-0.1,0.1-0.2,0.5-0.3l1-0.2c1.7-0.2,2.9-0.5,3.5-2.4l0.1-0.2c0.1-0.3,0.1-0.5,0.2-0.8l0.8-0.1c0.6-0.1,1.1-0.6,1-1.3
		c-0.1-0.6-0.6-1.1-1.2-1c-2.1,0.2-2.6,0.9-3.1,2.5v0.2c-0.2,0.6-0.2,0.6-1.6,0.8l-1,0.2c-0.9,0.1-1.7,0.7-2.1,1.4
		c-0.3,0.6-0.4,1.2-0.4,1.9c-1.8,0.6-3,2.1-3.2,3.9l-0.9,12.1l-10.2,4.1c-0.4,0.1-0.8,0.6-0.8,1v23.3h-1.8v5.9h58v-5.9h-1.9V1740.6z
		 M1166.1,1704.8c0.6,0,1.1,0.2,1.6,0.6c0.4,0.4,0.6,0.9,0.7,1.4h-4.5C1164,1705.6,1165,1704.8,1166.1,1704.8z M1163.7,1709.1h4.9
		l0.2,2.1h-5.2L1163.7,1709.1z M1163.3,1713.5h5.6l0.2,2.2l-6,1.8L1163.3,1713.5z M1149.9,1700.1c0.1-1.2,1.1-2,2.3-2
		c0.6,0,1.1,0.2,1.6,0.6c0.4,0.4,0.6,0.9,0.7,1.4v0.1L1149.9,1700.1L1149.9,1700.1z M1149.8,1702.6h4.9l0.2,2.4h-5.2L1149.8,1702.6z
		 M1149.4,1707.3h5.6l0.9,12.4l-2.6,0.8v-9.3c0-0.4-0.2-0.8-0.5-1s-0.7-0.3-1-0.1l-2.7,1L1149.4,1707.3z M1138.1,1718.1l10-4
		l0.4-0.2l2.6-1v12.1c0,0.6,0.5,1.2,1.2,1.2c0.6,0,1.2-0.5,1.2-1.2v-2l21.9-6.6v11.7c0,0.6,0.5,1.2,1.2,1.2c0.6,0,1.2-0.5,1.2-1.2
		v-3.1l10.3-5.7v21.3h-33.2v-11.4c0-1.1-0.9-2-2-2l0,0h-10c-1.1,0-2,0.9-2,2v11.4h-2.6v-22.5H1138.1z M1143,1740.6v-11h9.3v11H1143z
		 M1189.7,1744.1h-53.4v-1.2h53.4V1744.1z"/>
	<path class="st0" d="M1149.9,1733.9c-0.6,0-1.2,0.5-1.2,1.2c0,0.6,0.5,1.2,1.2,1.2s1.2-0.5,1.2-1.2S1150.6,1733.9,1149.9,1733.9
		L1149.9,1733.9z"/>
</g>
</svg>
