<?xml version="1.0" encoding="utf-8"?>
<!-- Generator: Adobe Illustrator 26.0.1, SVG Export Plug-In . SVG Version: 6.00 Build 0)  -->
<svg version="1.1" id="Layer_1" xmlns="http://www.w3.org/2000/svg" xmlns:xlink="http://www.w3.org/1999/xlink" x="0px" y="0px"
	 viewBox="0 0 55.7 55.7" style="enable-background:new 0 0 55.7 55.7;" xml:space="preserve">
<style type="text/css">
	.st0{fill:#F6A318;}
</style>
<g transform="translate(0.015)">
	<path class="st0" d="M55,0H0.7C0.5,0,0.4,0,0.3,0.1c0,0-0.1,0-0.1,0.1l0,0c0,0-0.1,0.1-0.2,0.2l0,0v0.1c0,0,0,0.1,0,0.2v5.5
		c0,0.2,0.1,0.4,0.3,0.6l26.9,18.8V49L0.6,54.3C0.2,54.4,0,54.7,0,55.1c0.1,0.3,0.3,0.6,0.7,0.6h0.1l27.1-5.5H55
		c0.4,0,0.7-0.3,0.7-0.7s-0.3-0.7-0.7-0.7H28.5v-23H55c0.4,0,0.7-0.3,0.7-0.6c0,0,0,0,0-0.1V0.7C55.7,0.3,55.4,0,55,0L55,0z
		 M54.3,1.3V19H28L2.8,1.3H54.3z M1.3,5.7V2l25.8,18v3.8L1.3,5.7z M28.5,24.4v-4.1h25.8v4.1H28.5z"/>
	<circle class="st0" cx="19.7" cy="6.1" r="1.3"/>
	<circle class="st0" cx="26.5" cy="6.1" r="1.3"/>
	<circle class="st0" cx="33.3" cy="6.1" r="1.3"/>
	<circle class="st0" cx="40.1" cy="6.1" r="1.3"/>
	<circle class="st0" cx="46.8" cy="6.1" r="1.3"/>
	<circle class="st0" cx="23.8" cy="10.2" r="1.3"/>
	<circle class="st0" cx="30.6" cy="10.2" r="1.3"/>
	<circle class="st0" cx="37.3" cy="10.2" r="1.3"/>
	<circle class="st0" cx="44.1" cy="10.2" r="1.3"/>
	<circle class="st0" cx="50.9" cy="10.2" r="1.3"/>
	<circle class="st0" cx="29.2" cy="14.2" r="1.3"/>
	<circle class="st0" cx="36" cy="14.2" r="1.3"/>
	<circle class="st0" cx="42.7" cy="14.2" r="1.3"/>
	<circle class="st0" cx="49.5" cy="14.2" r="1.3"/>
	<path class="st0" d="M14.2,40.7c0.4,0,0.7-0.3,0.7-0.6c0,0,0,0,0-0.1v-9.2l2.9,2.9c0.1,0.1,0.3,0.2,0.5,0.2s0.4-0.1,0.5-0.2
		c0.3-0.2,0.3-0.6,0-0.9l0,0l-4.1-4.1c-0.2-0.3-0.6-0.3-0.9-0.1c0,0-0.1,0-0.1,0.1l-4.1,4.1c-0.3,0.3-0.3,0.7,0,0.9
		c0.3,0.3,0.7,0.3,0.9,0l2.9-2.9V40C13.6,40.4,13.9,40.7,14.2,40.7z"/>
	<path class="st0" d="M42.7,40.7c0.4,0,0.7-0.3,0.7-0.6c0,0,0,0,0-0.1v-9.2l2.9,2.9c0.1,0.1,0.3,0.2,0.5,0.2s0.4-0.1,0.5-0.2
		c0.3-0.2,0.3-0.6,0-0.9l0,0l-4.1-4.1c-0.2-0.3-0.6-0.3-0.9-0.1c0,0-0.1,0-0.1,0.1l-4.1,4.1c-0.3,0.3-0.3,0.7,0,0.9
		c0.3,0.3,0.7,0.3,0.9,0l2.9-2.9V40C42.1,40.4,42.4,40.7,42.7,40.7z"/>
</g>
</svg>
