<?xml version="1.0" encoding="utf-8"?>
<!-- Generator: Adobe Illustrator 26.0.1, SVG Export Plug-In . SVG Version: 6.00 Build 0)  -->
<svg version="1.1" id="Layer_1" xmlns="http://www.w3.org/2000/svg" xmlns:xlink="http://www.w3.org/1999/xlink" x="0px" y="0px"
	 viewBox="0 0 57.1 61.8" style="enable-background:new 0 0 57.1 61.8;" xml:space="preserve">
<style type="text/css">
	.st0{fill:#F6A318;}
</style>
<g transform="translate(-873.484 -1003)">
	<path class="st0" d="M889.1,1034.2c-0.5,0.4-1.1,0.7-1.7,1.1c-0.6,0.4-1.1,0.7-1.7,1.1c-1.2,0.7-2.3,1.4-3.5,2l-1.8,1l-1.8,0.9l0,0
		c0,0,0,0-0.1,0s-0.1,0-0.1,0.1c-0.1,0-0.1,0.1-0.2,0.1l0,0l-4.4,4.4c-0.5,0.5-0.5,1.4,0,1.9l17.6,17.6c0.5,0.5,1.4,0.5,1.9,0l0,0
		l4.4-4.4l0,0l0.1-0.1c0,0,0-0.1,0.1-0.1s0,0,0-0.1l0,0c0.6-1.2,1.2-2.4,1.9-3.6c0.6-1.2,1.3-2.4,2-3.5c0.3-0.6,0.7-1.2,1.1-1.7
		c0.4-0.6,0.7-1.2,1.1-1.7l1.1-1.6c0.4-0.5,0.9-1,1.3-1.6l0.1-0.1l0,0l0,0l0.1-0.1l0.4-0.4l0.7-0.7l1.4-1.4l2.9-2.9l5.5-5.5
		c0.6-0.3,0.9-1.1,0.6-1.7l-0.9-7.5l4.9-6.6l0,0c0.3-0.4,0.3-1-0.1-1.3l-1.6-1.6c-0.4-0.4-0.9-0.4-1.3-0.1l0,0l-6.6,4.9l-7.8-1
		c-0.4,0-0.8,0.1-1.1,0.4l-5.8,5.8l-2.9,2.9l-1.4,1.5c-0.5,0.5-1,1-1.4,1.4c-0.5,0.4-0.9,0.8-1.4,1.2L889.1,1034.2z M892.4,1061.5
		l-15.7-15.7l2.9-2.9l15.7,15.7L892.4,1061.5z M892.4,1035.2c0.6-0.5,1.1-1,1.7-1.4c0.5-0.5,1-1,1.5-1.4l1.4-1.5l2.9-2.9l5.3-5.3
		l7.7,0.9h0.1c0.3,0,0.7-0.1,0.9-0.3l6-5.2l0.3,0.3l-5.2,6c-0.2,0.3-0.3,0.6-0.3,0.9v0.1l0,0l0.8,6.2c-0.2-0.1-0.4-0.2-0.6-0.3
		c-0.3-0.1-0.6-0.3-0.9-0.5c-0.3-0.2-0.6-0.4-1-0.6s-0.6-0.4-1-0.7c-0.3-0.2-0.6-0.5-0.9-0.7c-0.3-0.2-0.6-0.5-0.9-0.8
		c-0.5-0.5-1-1-1.4-1.5s-0.7-0.8-0.9-1.1c-0.1-0.1-0.2-0.2-0.2-0.3l-0.1-0.1l0,0c-0.2-0.3-0.6-0.4-0.9-0.2c-0.3,0.2-0.4,0.6-0.2,0.9
		l0.1,0.1c0.1,0.1,0.1,0.2,0.2,0.4c0.2,0.3,0.5,0.8,0.9,1.3s0.8,1.1,1.4,1.7c0.3,0.3,0.5,0.6,0.8,0.9s0.6,0.6,0.9,0.9
		c0.3,0.3,0.6,0.6,1,0.8c0.3,0.3,0.7,0.5,1,0.8c0.3,0.2,0.7,0.5,1,0.7s0.6,0.4,0.9,0.5l0.1,0.1l-4.4,4.4l-2.9,2.9l-1.4,1.4l-0.7,0.7
		l-0.4,0.4l-0.2,0.2l-0.2,0.3c-0.4,0.5-0.9,1-1.3,1.6l-1.3,1.8c-0.4,0.6-0.8,1.2-1.2,1.8s-0.8,1.2-1.1,1.8c-0.7,1.2-1.4,2.4-2.1,3.6
		c-0.5,0.9-0.9,1.8-1.4,2.6l-15.3-15.3l0.8-0.4l1.8-1c1.2-0.7,2.4-1.3,3.6-2.1c0.6-0.3,1.2-0.7,1.8-1.1s1.2-0.7,1.8-1.1
		L892.4,1035.2z"/>
	<path class="st0" d="M924.4,1019.3c-0.6,0-1,0.4-1.1,1c0,0.6,0.4,1,1,1.1l0,0h0.1c2,0,3.9-0.9,5-2.6c1.2-1.8,1.3-4.1,0.4-6.1
		c-1.7-4-5.7-4.9-11.7-6.4c-1.3-0.3-2.7-0.6-4.2-1c-1.9-0.6-4-0.4-5.7,0.5c-1,0.6-1.7,1.5-2,2.6c-0.4,1.7,0.2,3.5,1.6,4.7
		c1.5,1.1,3.5,1.3,5.1,0.4c1.9-0.9,2.9-0.7,3-0.6c0.1,0.1,0.1,0.5-0.3,1.2c-0.3,0.5-0.1,1.1,0.4,1.4c0.5,0.3,1.1,0.1,1.4-0.4l0,0
		c1-2,0.4-3.1,0-3.6c-1-1-3-1-5.4,0.2c-0.9,0.6-2.1,0.5-2.9-0.1c-0.8-0.6-1.1-1.6-0.9-2.6c0.2-0.6,0.6-1.1,1.1-1.4
		c1.3-0.6,2.8-0.7,4.2-0.3c1.5,0.4,2.9,0.7,4.2,1.1c5.7,1.4,9.1,2.2,10.4,5.2c0.6,1.3,0.6,2.9-0.2,4.1
		C927.1,1018.7,925.8,1019.4,924.4,1019.3z"/>
	<path class="st0" d="M896,1014.4c1.1,0,2.2-0.4,3-1c0.2-0.2,0.5-0.4,0.9-0.6c1.3-0.8,3.1-1.9,3.1-3.8c0-1.4-0.7-2.6-1.9-3.3
		c-0.4-0.3-0.8-0.7-1.2-1c-1-1.1-2.4-1.7-3.9-1.7c-2.2,0-4.6,1.6-4.9,5.1c-0.2,1.7,0.3,3.4,1.4,4.7
		C893.4,1013.8,894.6,1014.4,896,1014.4z M893.1,1008.3c0.2-2.4,1.6-3.3,2.9-3.3c0.9,0,1.8,0.4,2.5,1.1c0.4,0.4,0.9,0.8,1.4,1.2
		c0.8,0.6,1.1,0.8,1.1,1.8c0,0.7-1.1,1.4-2.1,2c-0.4,0.2-0.7,0.4-1,0.7c-1.2,0.9-2.9,0.8-3.9-0.3
		C893.2,1010.6,892.9,1009.4,893.1,1008.3z"/>
</g>
</svg>
