<?xml version="1.0" encoding="utf-8"?>
<!-- Generator: Adobe Illustrator 26.0.1, SVG Export Plug-In . SVG Version: 6.00 Build 0)  -->
<svg version="1.1" id="Layer_1" xmlns="http://www.w3.org/2000/svg" xmlns:xlink="http://www.w3.org/1999/xlink" x="0px" y="0px"
	 viewBox="0 0 45.2 54.4" style="enable-background:new 0 0 45.2 54.4;" xml:space="preserve">
<style type="text/css">
	.st0{fill:#F6A318;}
</style>
<g transform="translate(-39.72)">
	<path class="st0" d="M84.1,52.7h-1.6V12.8c0.4-0.2,0.6-0.7,0.4-1.2c-0.1-0.2-0.2-0.3-0.4-0.4C82,4.6,76.2-0.4,69.6,0
		c-6,0.4-10.8,5.2-11.2,11.2c-0.4,0.2-0.6,0.7-0.4,1.1c0.1,0.2,0.2,0.3,0.4,0.4V34l-15.8,3.5c-0.5,0.1-0.8,0.6-0.7,1s0.6,0.8,1,0.7
		l0,0l0.3-0.1v13.4h-2.6c-0.5,0-0.9,0.4-0.9,0.9s0.4,0.9,0.9,0.9h3.5h40c0.5,0,0.9-0.4,0.9-0.9S84.6,52.7,84.1,52.7L84.1,52.7
		L84.1,52.7z M58.4,35.9v2.4c0,0.5,0.4,0.9,0.9,0.9s0.9-0.4,0.9-0.9V12.9h10.3v34.6c0,0.5,0.4,0.9,0.9,0.9s0.9-0.4,0.9-0.9v-5h4.3v5
		c0,0.5,0.4,0.9,0.9,0.9s0.9-0.4,0.9-0.9V12.9h2.5v39.8H60.1V41.8c0-0.5-0.4-0.9-0.9-0.9s-0.9,0.4-0.9,0.9l0,0v10.9H44.9V38.9
		L58.4,35.9z M70.4,1.7c5.3,0,9.8,4.1,10.3,9.4h-2.5v-0.3c0-0.5-0.4-0.9-0.9-0.9s-0.9,0.4-0.9,0.9v0.3h-4.3v-0.3
		c0-0.5-0.4-0.9-0.9-0.9s-0.9,0.4-0.9,0.9v0.3H60.1C60.6,5.8,65.1,1.7,70.4,1.7z M72.2,24.7h4.3v4.2h-4.3V24.7z M72.2,30.7h4.3v4.2
		h-4.3V30.7z M76.4,23h-4.3v-4.2h4.3V23z M72.2,36.6h4.3v4.2h-4.3V36.6z M76.4,17.1h-4.3v-4.2h4.3V17.1z"/>
	<path class="st0" d="M74.3,9.4c0.5,0,0.9-0.4,0.9-0.9l0,0V5.9c0-0.5-0.4-0.9-0.9-0.9s-0.9,0.4-0.9,0.9l0,0v2.7
		C73.4,9,73.8,9.4,74.3,9.4L74.3,9.4z"/>
	<path class="st0" d="M48.2,46.4h4.1c0.5,0,0.9-0.4,0.9-0.9l0,0v-4.1c0-0.5-0.4-0.9-0.9-0.9l0,0h-4.1c-0.5,0-0.9,0.4-0.9,0.9l0,0
		v4.1C47.3,46,47.7,46.4,48.2,46.4L48.2,46.4z M49.1,42.4h2.3v2.3h-2.3V42.4z"/>
</g>
</svg>
