<?xml version="1.0" encoding="utf-8"?>
<!-- Generator: Adobe Illustrator 26.0.1, SVG Export Plug-In . SVG Version: 6.00 Build 0)  -->
<svg version="1.1" id="Layer_1" xmlns="http://www.w3.org/2000/svg" xmlns:xlink="http://www.w3.org/1999/xlink" x="0px" y="0px"
	 viewBox="0 0 56.2 56.2" style="enable-background:new 0 0 56.2 56.2;" xml:space="preserve">
<style type="text/css">
	.st0{fill:#F6A318;}
</style>
<g transform="translate(14966.111 4831.901)">
	<path class="st0" d="M-14934.4-4826.5h-1.1v-1.1c0-0.5-0.4-0.9-0.9-0.9h-3.2c-0.5,0-0.9,0.4-0.9,0.9v1.1h-1.1
		c-0.5,0-0.9,0.4-0.9,0.9v3.2c0,0.5,0.4,0.9,0.9,0.9h1.1v1.1c0,0.5,0.4,0.9,0.9,0.9h3.2c0.5,0,0.9-0.4,0.9-0.9v-1h1.1
		c0.5,0,0.9-0.4,0.9-0.9v-3.2C-14933.5-4826.1-14933.9-4826.5-14934.4-4826.5z M-14935.3-4823.3h-1.1c-0.5,0-0.9,0.4-0.9,0.9v1.1
		h-1.3v-1.1c0-0.5-0.4-0.9-0.9-0.9h-1.1v-1.3h1.1c0.5,0,0.9-0.4,0.9-0.9v-1.1h1.3v1.1c0,0.5,0.4,0.9,0.9,0.9h1.1V-4823.3
		L-14935.3-4823.3z"/>
	<path class="st0" d="M-14910.8-4777.5h-0.8v-29.8c0-0.5-0.4-0.9-0.9-0.9h-10.5v-8.7c0-0.2-0.1-0.4-0.2-0.6l0,0l0,0l0,0l0,0l0,0l0,0
		c-0.2-0.2-0.4-0.2-0.6-0.2h-5.2v-13c0-0.5-0.4-0.9-0.9-0.9h-15.8c-0.5,0-0.9,0.4-0.9,0.9v13.1c-2.7,0-4.7,0-5.2,0l0,0
		c-0.2,0-0.4,0-0.5,0.1l0,0l0,0c-0.1,0-0.1,0.1-0.2,0.1l0,0l0,0c-0.2,0.2-0.3,0.4-0.3,0.6l0,0l0,0v8.7h-10.5c-0.5,0-0.9,0.4-0.9,0.9
		v29.8h-0.8c-0.5,0-0.9,0.4-0.9,0.9s0.4,0.9,0.9,0.9h54.4c0.5,0,0.9-0.4,0.9-0.9C-14909.9-4777.1-14910.3-4777.5-14910.8-4777.5z
		 M-14931.7-4791.5h-19.4v-3.2h26.2v3.2H-14931.7z M-14951.1-4805.2h26.2v3.3h-26.2V-4805.2z M-14951.1-4800h26.2v3.3h-26.2V-4800z
		 M-14924.9-4807.1h-26.2v-3.3h26.2V-4807.1z M-14945-4830h13.9v12.1c-4.3,0-9.7,0-13.9,0V-4830z M-14945.9-4816c0.1,0,0.1,0,0.2,0
		c6.8,0,17.3,0,20.8,0c0,1.2,0,2.5,0,3.8h-26.2v-3.7L-14945.9-4816z M-14953-4777.5h-9.5v-28.8h9.5V-4777.5L-14953-4777.5z
		 M-14951.1-4777.5v-12.1h5.9v12.1H-14951.1z M-14932.7-4777.5h-10.6v-12.1h10.6V-4777.5L-14932.7-4777.5z M-14930.8-4777.5v-12.1
		h5.9v12.1H-14930.8z M-14913.5-4777.5h-9.6v-13l0,0l0,0v-10.3l0,0l0,0v-5.2l0,0l0,0v-0.3h9.6V-4777.5z"/>
	<path class="st0" d="M-14955.1-4784.8h-5.5c-0.5,0-0.9,0.4-0.9,0.9v3.9c0,0.5,0.4,0.9,0.9,0.9h5.5c0.5,0,0.9-0.4,0.9-0.9v-3.9
		C-14954.1-4784.4-14954.5-4784.8-14955.1-4784.8z M-14956-4780.9h-3.6v-2h3.6V-4780.9z"/>
	<path class="st0" d="M-14955.1-4794.8h-5.5c-0.5,0-0.9,0.4-0.9,0.9v3.9c0,0.5,0.4,0.9,0.9,0.9h5.5c0.5,0,0.9-0.4,0.9-0.9v-3.9
		C-14954.1-4794.3-14954.5-4794.8-14955.1-4794.8z M-14956-4790.8h-3.6v-2h3.6V-4790.8z"/>
	<path class="st0" d="M-14955.1-4804.7h-5.5c-0.5,0-0.9,0.4-0.9,0.9v3.9c0,0.5,0.4,0.9,0.9,0.9h5.5c0.5,0,0.9-0.4,0.9-0.9v-3.9
		C-14954.1-4804.3-14954.5-4804.7-14955.1-4804.7z M-14956-4800.8h-3.6v-2h3.6V-4800.8z"/>
	<path class="st0" d="M-14920.9-4779h5.5c0.5,0,0.9-0.4,0.9-0.9v-3.9c0-0.5-0.4-0.9-0.9-0.9h-5.5c-0.5,0-0.9,0.4-0.9,0.9v3.9
		C-14921.8-4779.4-14921.4-4779-14920.9-4779z M-14920-4782.9h3.6v2h-3.6V-4782.9z"/>
	<path class="st0" d="M-14920.9-4789h5.5c0.5,0,0.9-0.4,0.9-0.9v-3.9c0-0.5-0.4-0.9-0.9-0.9h-5.5c-0.5,0-0.9,0.4-0.9,0.9v3.9
		C-14921.8-4789.4-14921.4-4789-14920.9-4789z M-14920-4792.9h3.6v2h-3.6V-4792.9z"/>
	<path class="st0" d="M-14920.9-4798.9h5.5c0.5,0,0.9-0.4,0.9-0.9v-3.9c0-0.5-0.4-0.9-0.9-0.9h-5.5c-0.5,0-0.9,0.4-0.9,0.9v3.9
		C-14921.8-4799.3-14921.4-4798.9-14920.9-4798.9z M-14920-4802.8h3.6v2h-3.6V-4802.8z"/>
</g>
</svg>
