<?xml version="1.0" encoding="utf-8"?>
<!-- Generator: Adobe Illustrator 26.0.1, SVG Export Plug-In . SVG Version: 6.00 Build 0)  -->
<svg version="1.1" id="Layer_1" xmlns="http://www.w3.org/2000/svg" xmlns:xlink="http://www.w3.org/1999/xlink" x="0px" y="0px"
	 viewBox="0 0 62.4 62.4" style="enable-background:new 0 0 62.4 62.4;" xml:space="preserve">
<style type="text/css">
	.st0{fill:#F6A318;}
</style>
<g transform="translate(-1112 -1502)">
	<path class="st0" d="M1128.1,1545c-1.8,0-3.2,1.4-3.2,3.1v0.1v10.8c0,0.6,0.4,1,1,1.1h0.1h4.3c0.6,0,1-0.4,1.1-1v-0.1v-10.8
		c0-1.8-1.4-3.2-3.1-3.2C1128.2,1545,1128.2,1545,1128.1,1545z M1129.2,1557.9h-2.1v-9.7c0-0.6,0.5-1.1,1.1-1.1s1.1,0.5,1.1,1.1
		L1129.2,1557.9z"/>
	<path class="st0" d="M1158.3,1545c-1.8,0-3.2,1.4-3.2,3.1v0.1v10.8c0,0.6,0.4,1,1,1.1h0.1h4.3c0.6,0,1-0.4,1.1-1v-0.1v-10.8
		c0-1.8-1.4-3.2-3.1-3.2C1158.3,1545,1158.3,1545,1158.3,1545z M1159.3,1557.9h-2.1v-9.7c0-0.6,0.5-1.1,1.1-1.1s1.1,0.5,1.1,1.1
		L1159.3,1557.9z"/>
	<path class="st0" d="M1160.4,1532.1h-8.6c-0.6,0-1,0.4-1.1,1v0.1v8.6c0,0.6,0.4,1,1,1.1h0.1h8.6c0.6,0,1-0.4,1.1-1v-0.1v-8.6
		C1161.5,1532.6,1161.1,1532.2,1160.4,1532.1C1160.5,1532.1,1160.5,1532.1,1160.4,1532.1z M1159.3,1540.7h-6.5v-6.5h6.5V1540.7z"/>
	<path class="st0" d="M1147.5,1532.1h-8.6c-0.6,0-1,0.4-1.1,1v0.1v8.6c0,0.6,0.4,1,1,1.1h0.1h8.6c0.6,0,1-0.4,1.1-1v-0.1v-8.6
		C1148.6,1532.6,1148.2,1532.2,1147.5,1532.1L1147.5,1532.1z M1146.4,1540.7h-6.5v-6.5h6.5V1540.7z"/>
	<path class="st0" d="M1134.6,1532.1h-8.6c-0.6,0-1,0.4-1.1,1v0.1v8.6c0,0.6,0.4,1,1,1.1h0.1h8.6c0.6,0,1-0.4,1.1-1v-0.1v-8.6
		C1135.7,1532.6,1135.3,1532.2,1134.6,1532.1L1134.6,1532.1z M1133.5,1540.7h-6.5v-6.5h6.5V1540.7z"/>
	<path class="st0" d="M1160.4,1519.2h-8.6c-0.6,0-1,0.4-1.1,1v0.1v8.6c0,0.6,0.4,1,1,1.1h0.1h8.6c0.6,0,1-0.4,1.1-1v-0.1v-8.6
		C1161.5,1519.7,1161.1,1519.3,1160.4,1519.2C1160.5,1519.2,1160.5,1519.2,1160.4,1519.2z M1159.3,1527.8h-6.5v-6.5h6.5V1527.8z"/>
	<path class="st0" d="M1147.5,1519.2h-8.6c-0.6,0-1,0.4-1.1,1v0.1v8.6c0,0.6,0.4,1,1,1.1h0.1h8.6c0.6,0,1-0.4,1.1-1v-0.1v-8.6
		C1148.6,1519.7,1148.2,1519.3,1147.5,1519.2L1147.5,1519.2z M1146.4,1527.8h-6.5v-6.5h6.5V1527.8z"/>
	<path class="st0" d="M1134.6,1519.2h-8.6c-0.6,0-1,0.4-1.1,1v0.1v8.6c0,0.6,0.4,1,1,1.1h0.1h8.6c0.6,0,1-0.4,1.1-1v-0.1v-8.6
		C1135.7,1519.7,1135.3,1519.3,1134.6,1519.2L1134.6,1519.2z M1133.5,1527.8h-6.5v-6.5h6.5V1527.8z"/>
	<path class="st0" d="M1173.3,1562.2h-7.5V1516c0-0.6-0.4-1-1-1.1h-0.1h-43c-0.6,0-1,0.4-1.1,1v0.1v46.3h-7.5
		c-0.6,0-1.1,0.5-1.1,1.1s0.5,1.1,1.1,1.1l0,0h60.2c0.6,0,1.1-0.5,1.1-1.1C1174.4,1562.7,1173.9,1562.2,1173.3,1562.2z
		 M1135.7,1562.2v-15.1h6.5v15.1H1135.7z M1144.3,1562.2v-15.1h6.5v15.1H1144.3z M1152.9,1562.2v-16.1c0-0.6-0.4-1-1-1.1h-0.1h-17.2
		c-0.6,0-1,0.4-1.1,1v0.1v16.1h-10.8V1517h40.9v45.2H1152.9z"/>
	<path class="st0" d="M1139.9,1508.9l-0.4,2.6c-0.1,0.4,0.1,0.8,0.4,1.1c0.4,0.2,0.8,0.2,1.2,0.1l2.2-1.2l2.2,1.2
		c0.2,0.1,0.4,0.1,0.5,0.1c0.2,0,0.4-0.1,0.6-0.2c0.4-0.2,0.5-0.7,0.4-1.1l-0.4-2.6l1.7-1.8c0.3-0.3,0.4-0.7,0.2-1.1
		c-0.2-0.4-0.5-0.6-0.9-0.8l-2.4-0.3l-1.1-2.4c-0.2-0.3-0.6-0.5-1-0.5s-0.8,0.3-1,0.6l-1.1,2.4l-2.4,0.3c-0.4,0.1-0.7,0.4-0.9,0.8
		c-0.1,0.4,0,0.8,0.2,1.1L1139.9,1508.9z M1142,1506.9c0.3,0,0.6-0.3,0.9-0.6l0.3-0.6l0.3,0.8c0.2,0.3,0.5,0.6,0.9,0.6l0.9,0.1
		l-0.6,0.8c-0.2,0.1-0.3,0.5-0.3,0.9l0.1,1l-0.8-0.4c-0.3-0.1-0.7-0.1-1.1,0l-0.8,0.4l0.3-1c0.1-0.4,0-0.7-0.3-1l-0.6-0.8
		L1142,1506.9z"/>
	<path class="st0" d="M1127,1508.9l-0.4,2.6c-0.1,0.4,0.1,0.8,0.4,1.1c0.4,0.2,0.8,0.2,1.2,0.1l2.2-1.2l2.2,1.2
		c0.2,0.1,0.4,0.1,0.5,0.1c0.2,0,0.4-0.1,0.6-0.2c0.4-0.2,0.5-0.7,0.4-1.1l-0.4-2.6l1.7-1.8c0.3-0.3,0.4-0.7,0.2-1.1
		c-0.2-0.4-0.5-0.6-0.9-0.8l-2.4-0.3l-1.1-2.4c-0.2-0.3-0.6-0.5-1-0.5s-0.8,0.3-1,0.6l-1.1,2.4l-2.4,0.3c-0.4,0.1-0.7,0.4-0.9,0.8
		c-0.1,0.4,0,0.8,0.2,1.1L1127,1508.9z M1129.1,1506.9c0.3,0,0.6-0.3,0.9-0.6l0.3-0.6l0.3,0.8c0.2,0.3,0.5,0.6,0.9,0.6l0.9,0.1
		l-0.6,0.8c-0.2,0.1-0.3,0.5-0.3,0.9l0.1,1l-0.8-0.4c-0.3-0.1-0.7-0.1-1.1,0l-0.8,0.4l0.3-1c0.1-0.4,0-0.7-0.3-1l-0.6-0.8
		L1129.1,1506.9z"/>
	<path class="st0" d="M1152.8,1508.9l-0.4,2.6c-0.1,0.4,0.1,0.8,0.4,1.1c0.4,0.2,0.8,0.2,1.2,0.1l2.2-1.2l2.2,1.2
		c0.2,0.1,0.4,0.1,0.5,0.1c0.2,0,0.4-0.1,0.6-0.2c0.4-0.2,0.5-0.7,0.4-1.1l-0.4-2.6l1.7-1.8c0.3-0.3,0.4-0.7,0.2-1.1
		c-0.2-0.4-0.5-0.6-0.9-0.8l-2.4-0.3l-1.1-2.4c-0.2-0.3-0.6-0.5-1-0.5s-0.8,0.3-1,0.6l-1.1,2.4l-2.4,0.3c-0.4,0.1-0.7,0.4-0.9,0.8
		c-0.1,0.4,0,0.8,0.2,1.1L1152.8,1508.9z M1154.9,1506.9c0.3,0,0.6-0.3,0.9-0.6l0.3-0.6l0.3,0.8c0.2,0.3,0.5,0.6,0.9,0.6l0.9,0.1
		l-0.6,0.8c-0.2,0.1-0.3,0.5-0.3,0.9l0.1,1l-0.8-0.4c-0.3-0.1-0.7-0.1-1.1,0l-0.8,0.4l0.3-1c0.1-0.4,0-0.7-0.3-1l-0.6-0.8
		L1154.9,1506.9z"/>
</g>
</svg>
