<?xml version="1.0" encoding="utf-8"?>
<!-- Generator: Adobe Illustrator 26.0.1, SVG Export Plug-In . SVG Version: 6.00 Build 0)  -->
<svg version="1.1" id="Layer_1" xmlns="http://www.w3.org/2000/svg" xmlns:xlink="http://www.w3.org/1999/xlink" x="0px" y="0px"
	 viewBox="0 0 66.6 66.6" style="enable-background:new 0 0 66.6 66.6;" xml:space="preserve">
<style type="text/css">
	.st0{fill:#F6A318;}
</style>
<g transform="translate(-2.5 -2.5)">
	<path class="st0" d="M30.6,21c-4.6,1.9-7.9,6.1-8.7,11c-0.1,0.9,0.5,1.8,1.5,1.9h0.2c0.8,0,1.6-0.6,1.7-1.5
		c0.6-3.7,3.1-6.8,6.6-8.3c0.9-0.4,1.3-1.4,0.9-2.2S31.4,20.7,30.6,21z"/>
	<path class="st0" d="M17.5,39.2c1.2,0.9,2.7,1.4,4.2,1.3c0.8,0,1.7-0.1,2.5-0.2l4.1-4.1c-0.5,0.1-1,0.2-1.5,0.3
		c-3.1,0.6-6,1.1-7.2,0.1c-0.6-0.5-0.8-1.5-0.8-3.2c0-8.7,7.9-16.3,17-16.3c3.2,0,6.3,0.9,9,2.7l2.5-2.5c-3.4-2.3-7.3-3.6-11.4-3.6
		c-10.8,0-20.3,9.2-20.3,19.7C15.5,36.1,16.1,38,17.5,39.2z"/>
	<path class="st0" d="M35.8,2.5C17.4,2.5,2.5,17.4,2.5,35.8s14.9,33.3,33.3,33.3s33.3-14.9,33.3-33.3S54.2,2.5,35.8,2.5z M5.9,35.8
		c0-16.5,13.4-29.9,30-30c7.4,0,14.5,2.7,19.9,7.6L13.5,55.7C8.6,50.3,5.9,43.2,5.9,35.8z M30.8,50.5l1.5-8.6l2.9-2.9
		c1.2,0,2.5,0,3.7,0.1l1.9,11.5c0.3,1.5-0.1,3-1.1,4.1s-2.4,1.8-3.9,1.8s-3-0.7-3.9-1.8C30.9,53.5,30.5,52,30.8,50.5L30.8,50.5z
		 M40.6,35.7l-2.1-0.2l11.2-11.2c1.9,2.6,3,5.8,3.1,9c0,1.6-0.3,2.7-0.8,3.2c-1.1,0.9-4,0.4-7.2-0.1C43.4,36.2,42.1,36,40.6,35.7
		L40.6,35.7z M35.8,65.8c-7.4,0-14.5-2.7-19.9-7.6L28.1,46l-0.7,3.9c-0.4,2.5,0.3,5,1.9,6.9c3.1,3.6,8.5,4,12.1,1
		c0.4-0.3,0.7-0.6,1-1c1.6-1.9,2.3-4.4,1.9-6.9l-1.8-10.5c0.6,0.1,1.2,0.2,1.8,0.3c4.3,0.7,7.6,1.3,9.9-0.6c1.4-1.2,2-3,2-5.8
		c0-4.2-1.5-8.2-4.1-11.4l6-6c11,12.3,10,31.2-2.3,42.2C50.3,63.1,43.2,65.8,35.8,65.8L35.8,65.8z"/>
</g>
</svg>
