<?xml version="1.0" encoding="utf-8"?>
<!-- Generator: Adobe Illustrator 26.0.1, SVG Export Plug-In . SVG Version: 6.00 Build 0)  -->
<svg version="1.1" id="Layer_1" xmlns="http://www.w3.org/2000/svg" xmlns:xlink="http://www.w3.org/1999/xlink" x="0px" y="0px"
	 viewBox="0 0 62.2 62.2" style="enable-background:new 0 0 62.2 62.2;" xml:space="preserve">
<style type="text/css">
	.st0{fill:#F6A318;}
</style>
<path class="st0" d="M15.7,16.4c-1.6,0-2.9,1.3-2.9,2.9s1.3,2.9,2.9,2.9s2.9-1.3,2.9-2.9C18.6,17.7,17.3,16.4,15.7,16.4z M15.7,20.5
	c-0.6,0-1.1-0.5-1.1-1.1s0.5-1.1,1.1-1.1c0.6,0,1.1,0.5,1.1,1.1S16.3,20.5,15.7,20.5z"/>
<path class="st0" d="M60.9,22.2c-0.1-0.5-0.6-0.8-1.1-0.6s-0.8,0.6-0.6,1.1l0,0c4.6,15.5-4.1,31.8-19.6,36.4S7.8,55,3.1,39.5
	S7.3,7.7,22.7,3.1c14.1-4.2,29.1,2.7,35.1,16.1c0.2,0.5,0.8,0.6,1.2,0.4s0.6-0.7,0.4-1.2C52.4,2.7,34-4.3,18.4,2.7
	s-22.7,25.4-15.7,41s25.4,22.7,41,15.7C58.1,53.1,65.4,37.1,60.9,22.2L60.9,22.2z"/>
<path class="st0" d="M23.7,6.4C15.4,8.7,9,15.1,6.5,23.3C5.2,27.6,5,32.1,5.9,36.5c0.9,4.1,2.7,7.8,5.3,11c0.3,0.4,0.9,0.7,1.4,0.7
	l0,0c0.5,0,1-0.2,1.4-0.6l31.4-35.2c0.7-0.8,0.6-2-0.2-2.6c-0.1-0.1-0.1-0.1-0.2-0.2C38.8,5.4,30.9,4.3,23.7,6.4z M44.1,11.1l-6,6.8
	c-3.2-1.4-7-0.7-9.5,1.8c-0.2,0.2-0.6,0.3-0.9,0.2c-1.8-0.5-3.6-0.4-5.3,0.2c-0.5,0.2-0.7,0.7-0.6,1.2c0.2,0.5,0.7,0.7,1.2,0.6
	c0,0,0,0,0.1,0c1.3-0.5,2.8-0.6,4.2-0.2c0.9,0.3,2,0,2.7-0.7c1.8-1.8,4.5-2.4,6.9-1.6L19.4,38.9v-0.1c-0.4-0.9-1.2-1.5-2.1-1.6h-0.1
	c-2.5-0.4-4.2-2.8-3.8-5.3l0,0c0.3-1.9,1.8-3.4,3.6-3.8c1-0.2,1.8-0.9,2.1-1.9c0.2-0.9,0.7-1.7,1.2-2.4c0.3-0.4,0.2-1-0.2-1.3
	c-0.4-0.3-0.9-0.2-1.3,0.1c-0.7,0.9-1.3,1.9-1.6,3.1c-0.1,0.3-0.4,0.6-0.7,0.6c-2.6,0.5-4.6,2.6-5.1,5.3c-0.6,3.5,1.8,6.8,5.3,7.4
	h0.2c0.3,0,0.6,0.2,0.7,0.5s0.3,0.6,0.4,0.8l-5.3,6l0,0l0,0C7.5,40,5.9,31.5,8.3,23.8c2.3-7.6,8.3-13.5,15.9-15.6c2.3-0.6,4.6-1,7-1
	C35.7,7.2,40.3,8.5,44.1,11.1L44.1,11.1L44.1,11.1L44.1,11.1z"/>
<path class="st0" d="M43.6,51.6c-0.4,0.3-0.6,0.8-0.3,1.2s0.8,0.6,1.2,0.3l0,0c5.4-3.2,9.3-8.3,11.1-14.3c1.3-4.3,1.5-8.8,0.6-13.2
	c-0.9-4.1-2.7-7.8-5.3-11c-0.7-0.8-1.8-0.9-2.6-0.2c-0.1,0.1-0.1,0.1-0.2,0.2L16.7,49.9c-0.7,0.8-0.6,2,0.2,2.6
	c0.1,0.1,0.1,0.1,0.2,0.2c4.2,2.7,9,4.1,14,4.1c2.5,0,5-0.4,7.5-1.1c0.8-0.2,1.6-0.5,2.4-0.8c0.5-0.2,0.7-0.7,0.5-1.2
	s-0.7-0.7-1.2-0.5c-0.7,0.3-1.5,0.5-2.2,0.8c-6.8,2-14,1-20-2.9l0,0l0,0l5.9-6.6c2,0.3,4-0.1,5.7-1.1c0.2-0.1,0.5-0.2,0.7-0.1
	c0.2,0.1,0.4,0.2,0.6,0.4c1.5,2.8,4.5,4.6,7.7,4.6c0.1,0,0.2,0,0.3,0c0.6,0,1.1-0.1,1.6-0.2c1.2,1.1,3.1,1,4.2-0.3
	c0.6-0.7,0.9-1.7,0.6-2.7c2-2.4,2.6-5.7,1.5-8.7c-0.1-0.3-0.1-0.7,0.2-1c1.6-1.6,2.5-3.8,2.5-6.1c0-3.4-2-6.5-5-7.9l4.9-5.5l0,0l0,0
	c5.2,6.3,6.8,14.8,4.4,22.5C52.3,44,48.6,48.7,43.6,51.6z M42.6,47c-0.6,0-1.1-0.5-1.1-1.1s0.5-1.1,1.1-1.1s1.1,0.5,1.1,1.1
	C43.7,46.5,43.2,47,42.6,47z M47.7,29.3c0,1.8-0.7,3.5-1.9,4.8c-0.7,0.8-1,1.9-0.6,2.9c0.8,2.2,0.5,4.6-0.8,6.4
	c-1.3-1-3.2-0.8-4.2,0.5c-0.5,0.7-0.7,1.5-0.6,2.4c-0.2,0-0.5,0.1-0.7,0.1c-2.6,0.1-5.1-1.3-6.3-3.6c-0.4-0.7-1-1.1-1.7-1.3
	s-1.5-0.1-2.1,0.3c-1,0.6-2.1,0.9-3.3,0.9l17.8-19.9C46,23.9,47.7,26.5,47.7,29.3L47.7,29.3z"/>
<path class="st0" d="M39.9,40.3h0.6c0.5,0,0.9-0.4,0.9-0.9s-0.4-0.9-0.9-0.9h-0.6c-0.5,0-0.9,0.4-0.9,0.9
	C39,39.9,39.4,40.3,39.9,40.3z"/>
<path class="st0" d="M20.5,30.9h-0.9c-0.5,0-0.9,0.4-0.9,0.9s0.4,0.9,0.9,0.9h0.9c0.5,0,0.9-0.4,0.9-0.9S21,30.9,20.5,30.9z"/>
<path class="st0" d="M39.9,31h0.9c0.5,0,0.9-0.4,0.9-0.9s-0.4-0.9-0.9-0.9h-0.9c-0.5,0-0.9,0.4-0.9,0.9S39.4,31,39.9,31z"/>
<path class="st0" d="M49.7,21.3h-0.5c-0.5,0-0.9,0.4-0.9,0.9s0.4,0.9,0.9,0.9h0.5c0.5,0,0.9-0.4,0.9-0.9S50.2,21.3,49.7,21.3
	L49.7,21.3z"/>
<path class="st0" d="M29.9,49.7c-0.5,0-0.9,0.4-0.9,0.9s0.4,0.9,0.9,0.9h1.5c0.5,0,0.9-0.4,0.9-0.9s-0.4-0.9-0.9-0.9H29.9z"/>
<path class="st0" d="M34.1,37.4h1.5c0.5,0,0.9-0.4,0.9-0.9s-0.4-0.9-0.9-0.9h-1.5c-0.5,0-0.9,0.4-0.9,0.9
	C33.2,37,33.6,37.4,34.1,37.4z"/>
<path class="st0" d="M25.1,26.6h1.7c0.5,0,0.9-0.4,0.9-0.9s-0.4-0.9-0.9-0.9h-1.7c-0.5,0-0.9,0.4-0.9,0.9S24.6,26.6,25.1,26.6z"/>
</svg>
