<?xml version="1.0" encoding="utf-8"?>
<!-- Generator: Adobe Illustrator 26.0.1, SVG Export Plug-In . SVG Version: 6.00 Build 0)  -->
<svg version="1.1" id="Layer_1" xmlns="http://www.w3.org/2000/svg" xmlns:xlink="http://www.w3.org/1999/xlink" x="0px" y="0px"
	 viewBox="0 0 56.1 56.2" style="enable-background:new 0 0 56.1 56.2;" xml:space="preserve">
<style type="text/css">
	.st0{fill:#F6A318;}
</style>
<g transform="translate(14629.928 4831.195)">
	<path class="st0" d="M-14589.4-4826.7h-1.4l-2.5-4.1c-0.2-0.3-0.5-0.4-0.8-0.4h-15.8c-0.3,0-0.6,0.2-0.8,0.4l-2.5,4.1h-1.4
		c-0.5,0-0.9,0.4-0.9,0.9v12.6h-11.7c-0.5,0-0.9,0.4-0.9,0.9v35.6h-2v1.8h56.1v-1.8h-2v-35.6c0-0.5-0.4-0.9-0.9-0.9l0,0h-11.7v-12.6
		C-14588.5-4826.3-14588.9-4826.7-14589.4-4826.7L-14589.4-4826.7z M-14609.3-4829.4h14.8l1.6,2.7h-18L-14609.3-4829.4z
		 M-14626.1-4811.4h10.8v34.6h-10.8V-4811.4z M-14613.5-4824.9h23.2v48.1h-2.9v-12.7c0-0.5-0.4-0.9-0.9-0.9l0,0h-15.6
		c-0.5,0-0.9,0.4-0.9,0.9l0,0v12.7h-2.9L-14613.5-4824.9z M-14608.8-4788.6h6v11.8h-6V-4788.6L-14608.8-4788.6z M-14601-4776.8
		v-11.8h6v11.8H-14601z M-14577.7-4811.4v34.6h-10.8v-34.6H-14577.7z"/>
	<rect x="-14610.8" y="-4823.1" class="st0" width="2.9" height="1.8"/>
	<rect x="-14605.9" y="-4823.1" class="st0" width="2.9" height="1.8"/>
	<rect x="-14601.1" y="-4823.1" class="st0" width="2.9" height="1.8"/>
	<rect x="-14596.3" y="-4823.1" class="st0" width="2.9" height="1.8"/>
	<rect x="-14610.8" y="-4817.5" class="st0" width="2.9" height="1.8"/>
	<rect x="-14605.9" y="-4817.5" class="st0" width="2.9" height="1.8"/>
	<rect x="-14601.1" y="-4817.5" class="st0" width="2.9" height="1.8"/>
	<rect x="-14596.3" y="-4817.5" class="st0" width="2.9" height="1.8"/>
	<rect x="-14610.8" y="-4812" class="st0" width="2.9" height="1.8"/>
	<rect x="-14605.9" y="-4812" class="st0" width="2.9" height="1.8"/>
	<rect x="-14601.1" y="-4812" class="st0" width="2.9" height="1.8"/>
	<rect x="-14596.3" y="-4812" class="st0" width="2.9" height="1.8"/>
	<rect x="-14610.8" y="-4806.4" class="st0" width="2.9" height="1.8"/>
	<rect x="-14605.9" y="-4806.4" class="st0" width="2.9" height="1.8"/>
	<rect x="-14601.1" y="-4806.4" class="st0" width="2.9" height="1.8"/>
	<rect x="-14596.3" y="-4806.4" class="st0" width="2.9" height="1.8"/>
	<rect x="-14610.8" y="-4800.9" class="st0" width="2.9" height="1.8"/>
	<rect x="-14605.9" y="-4800.9" class="st0" width="2.9" height="1.8"/>
	<rect x="-14601.1" y="-4800.9" class="st0" width="2.9" height="1.8"/>
	<rect x="-14596.3" y="-4800.9" class="st0" width="2.9" height="1.8"/>
	<rect x="-14610.8" y="-4795.4" class="st0" width="2.9" height="1.8"/>
	<rect x="-14605.9" y="-4795.4" class="st0" width="2.9" height="1.8"/>
	<rect x="-14601.1" y="-4795.4" class="st0" width="2.9" height="1.8"/>
	<rect x="-14596.3" y="-4795.4" class="st0" width="2.9" height="1.8"/>
	<rect x="-14624.6" y="-4808.6" class="st0" width="2.9" height="1.8"/>
	<rect x="-14619.7" y="-4808.6" class="st0" width="2.9" height="1.8"/>
	<rect x="-14624.6" y="-4803.9" class="st0" width="2.9" height="1.8"/>
	<rect x="-14619.7" y="-4803.9" class="st0" width="2.9" height="1.8"/>
	<rect x="-14624.6" y="-4799.2" class="st0" width="2.9" height="1.8"/>
	<rect x="-14619.7" y="-4799.2" class="st0" width="2.9" height="1.8"/>
	<rect x="-14624.6" y="-4794.6" class="st0" width="2.9" height="1.8"/>
	<rect x="-14619.7" y="-4794.6" class="st0" width="2.9" height="1.8"/>
	<rect x="-14624.6" y="-4789.9" class="st0" width="2.9" height="1.8"/>
	<rect x="-14619.7" y="-4789.9" class="st0" width="2.9" height="1.8"/>
	<rect x="-14624.6" y="-4785.2" class="st0" width="2.9" height="1.8"/>
	<rect x="-14619.7" y="-4785.2" class="st0" width="2.9" height="1.8"/>
	<rect x="-14586.9" y="-4808.6" class="st0" width="2.9" height="1.8"/>
	<rect x="-14582.1" y="-4808.6" class="st0" width="2.9" height="1.8"/>
	<rect x="-14586.9" y="-4803.9" class="st0" width="2.9" height="1.8"/>
	<rect x="-14582.1" y="-4803.9" class="st0" width="2.9" height="1.8"/>
	<rect x="-14586.9" y="-4799.2" class="st0" width="2.9" height="1.8"/>
	<rect x="-14582.1" y="-4799.2" class="st0" width="2.9" height="1.8"/>
	<rect x="-14586.9" y="-4794.6" class="st0" width="2.9" height="1.8"/>
	<rect x="-14582.1" y="-4794.6" class="st0" width="2.9" height="1.8"/>
	<rect x="-14586.9" y="-4789.9" class="st0" width="2.9" height="1.8"/>
	<rect x="-14582.1" y="-4789.9" class="st0" width="2.9" height="1.8"/>
	<rect x="-14586.9" y="-4785.2" class="st0" width="2.9" height="1.8"/>
	<rect x="-14582.1" y="-4785.2" class="st0" width="2.9" height="1.8"/>
</g>
</svg>
