<?xml version="1.0" encoding="utf-8"?>
<!-- Generator: Adobe Illustrator 26.0.1, SVG Export Plug-In . SVG Version: 6.00 Build 0)  -->
<svg version="1.1" id="Layer_1" xmlns="http://www.w3.org/2000/svg" xmlns:xlink="http://www.w3.org/1999/xlink" x="0px" y="0px"
	 viewBox="0 0 58.5 56.5" style="enable-background:new 0 0 58.5 56.5;" xml:space="preserve">
<style type="text/css">
	.st0{fill:#F6A318;}
</style>
<g transform="translate(0 -8.872)">
	<g transform="translate(0 8.872)">
		<g transform="translate(0 0)">
			<path class="st0" d="M57.7,5.1L38.9,0l0,0c-0.2,0-0.4,0-0.5,0L19.9,5L1.4,0C0.8-0.1,0.2,0.2,0,0.8C0,0.9,0,1,0,1.1v49.3
				c0,0.6,0.5,1.1,1.1,1.1s1.1-0.5,1.1-1.1v-3l16.6,4.5v3.6c0,0.6,0.5,1.1,1.1,1.1S21,56,21,55.4v-3.6l16.6-4.5v3
				c0,0.6,0.5,1.1,1.1,1.1s1.1-0.5,1.1-1.1l0,0v-3l16.6,4.5v3.5c0,0.6,0.5,1.1,1.1,1.1s1.1-0.5,1.1-1.1V6.1
				C58.5,5.6,58.2,5.2,57.7,5.1z M2.2,2.5L18.8,7v19.9L7.3,23.8c-2.4-2.5-2.3-6.5,0.1-9c0.6-0.6,1.4-1.1,2.3-1.3
				c0.6-0.1,0.9-0.7,0.8-1.3c-0.1-0.6-0.7-0.9-1.3-0.8l0,0c-1.3,0.3-2.4,1-3.4,1.9c-2.5,2.5-3.2,6.4-1.7,9.7l-2-0.5v-20H2.2z
				 M37.6,45.2L21,49.7V39.4c0-0.6-0.5-1.1-1.1-1.1s-1.1,0.5-1.1,1.1v10.2L2.2,45.2V24.7l16.6,4.5v6.7c0,0.6,0.5,1.1,1.1,1.1
				s1.1-0.5,1.1-1.1l0,0v-6.7l16.6-4.5L37.6,45.2L37.6,45.2z M37.6,22.4l-2,0.5c1.5-3.3,0.8-7.1-1.7-9.7c-2.8-2.8-7.3-2.8-10,0
				c-2.3,2.3-2.3,6,0,8.3c1.9,1.9,5,1.9,7,0l0,0c1.6-1.6,1.6-4.3,0-5.9c-0.4-0.4-1.1-0.4-1.5,0s-0.4,1.1,0,1.5c0.8,0.8,0.8,2,0,2.8
				l0,0c-1.1,1.1-2.8,1.1-3.9,0l0,0c-1.5-1.5-1.5-3.8,0-5.3c1.9-1.9,5.1-1.9,7,0l0,0c2.5,2.5,2.5,6.4,0.1,9L21,26.9v-20l16.6-4.5
				V22.4z M56.4,26.9l-2.9-0.8c-0.6-0.2-1.2,0.2-1.3,0.8c-0.2,0.6,0.2,1.2,0.8,1.3l3.5,0.9v20.5l-16.6-4.5V24.7l9.9,2.7
				c0.6,0.2,1.2-0.2,1.3-0.8s-0.2-1.2-0.8-1.3l-5.4-1.4c-2.4-2.5-2.3-6.5,0.1-9c1.9-1.9,5.1-1.9,7,0l0,0c1.5,1.5,1.5,3.8,0,5.3l0,0
				c-1.1,1.1-2.8,1.1-3.9,0l0,0c-0.8-0.8-0.8-2,0-2.8l0,0c0.4-0.4,0.4-1.1,0-1.5s-1.1-0.4-1.5,0l0,0c-1.6,1.6-1.6,4.3,0,5.9l0,0
				c1.9,1.9,5,1.9,7,0c2.3-2.3,2.3-6,0-8.3c-2.8-2.8-7.3-2.8-10,0c-2.5,2.5-3.2,6.4-1.7,9.7l-2-0.5V2.5L56.5,7L56.4,26.9z"/>
		</g>
	</g>
	<g transform="translate(7.702 20.344)">
		<path class="st0" d="M8.2,1.8C7.4,1,6.4,0.4,5.2,0C4.7-0.1,4.1,0.2,3.9,0.8C3.7,1.3,4,1.9,4.6,2.1l0,0c0.8,0.2,1.5,0.7,2.1,1.2
			c1.5,1.5,1.5,3.8,0,5.3c-1.1,1.1-2.8,1.1-3.9,0C2,7.8,2,6.6,2.7,5.8l0,0c0.4-0.4,0.4-1.1,0-1.5s-1.1-0.4-1.5,0
			c-1.6,1.6-1.6,4.3,0,5.9c1.9,1.9,5,1.9,7,0l0,0C10.5,7.9,10.5,4.1,8.2,1.8z"/>
	</g>
</g>
</svg>
