<?xml version="1.0" encoding="utf-8"?>
<!-- Generator: Adobe Illustrator 26.0.1, SVG Export Plug-In . SVG Version: 6.00 Build 0)  -->
<svg version="1.1" id="Layer_1" xmlns="http://www.w3.org/2000/svg" xmlns:xlink="http://www.w3.org/1999/xlink" x="0px" y="0px"
	 viewBox="0 0 57.9 57.9" style="enable-background:new 0 0 57.9 57.9;" xml:space="preserve">
<style type="text/css">
	.st0{fill:#F6A318;}
</style>
<g transform="translate(0 -0.001)">
	<path class="st0" d="M56.2,54.5h-1.7V15.3c0-0.9-0.8-1.7-1.7-1.7H46c-0.9,0-1.7,0.8-1.7,1.7v39.2h-3.4V22.1c0-0.9-0.8-1.7-1.7-1.7
		h-6.8c-0.9,0-1.7,0.8-1.7,1.7v32.4h-3.4V29c0-0.9-0.8-1.7-1.7-1.7h-6.8c-1,0-1.8,0.7-1.8,1.7v25.6h-3.4V35.8c0-0.9-0.8-1.7-1.7-1.7
		H5.1c-0.9,0-1.7,0.8-1.7,1.7v18.7H1.7c-0.9-0.1-1.7,0.7-1.8,1.6s0.7,1.7,1.6,1.8c0.1,0,0.1,0,0.2,0h54.5c0.9-0.1,1.6-0.9,1.6-1.8
		C57.8,55.3,57.1,54.6,56.2,54.5L56.2,54.5z M6.8,54.5v-17h3.4v17.1L6.8,54.5L6.8,54.5z M20.4,54.5V30.7h3.4v23.9L20.4,54.5
		L20.4,54.5z M34.1,54.5V23.8h3.4v30.7H34.1z M47.7,54.5V17h3.4v37.5H47.7z"/>
	<path class="st0" d="M1.7,23.8c0.1,0,0.1,0,0.2,0C10.1,23,18.2,21.4,26,19c5.6-1.8,11-4.1,16.1-7c3.2-1.8,6.2-3.9,9-6.3v2.8
		c-0.1,0.9,0.7,1.7,1.6,1.8c0.9,0.1,1.7-0.7,1.8-1.6c0-0.1,0-0.1,0-0.2V1.7c0-0.9-0.8-1.7-1.7-1.7l0,0H46c-0.9-0.1-1.7,0.7-1.8,1.6
		s0.7,1.7,1.6,1.8c0.1,0,0.1,0,0.2,0h2.6c-2.6,2.2-5.4,4.1-8.4,5.8C33,13.3,20.5,18.6,1.5,20.5c-0.9,0.1-1.6,1-1.5,1.9
		C0.2,23.2,0.9,23.8,1.7,23.8L1.7,23.8z"/>
</g>
</svg>
