<?xml version="1.0" encoding="utf-8"?>
<!-- Generator: Adobe Illustrator 26.0.1, SVG Export Plug-In . SVG Version: 6.00 Build 0)  -->
<svg version="1.1" id="Layer_1" xmlns="http://www.w3.org/2000/svg" xmlns:xlink="http://www.w3.org/1999/xlink" x="0px" y="0px"
	 viewBox="0 0 61.4 46.1" style="enable-background:new 0 0 61.4 46.1;" xml:space="preserve">
<style type="text/css">
	.st0{fill:#F6A318;}
</style>
<path class="st0" d="M61.4,35.9c-0.1,0.6-0.3,1.1-0.7,1.5l-9.2,8.3c-0.3,0.2-0.7,0.3-1.1,0.3L1.2,45.9c-0.6,0-1.1-0.4-1.2-1
	c0-0.3,0-0.5,0-0.8s0.2-0.6,0.4-0.8l9-7.6v-7.6H1.2c-0.3,0-0.6-0.1-0.9-0.4c-0.5-0.4-0.5-1.2,0-1.6l0,0l9.1-7.7V11H1.2
	c-0.5,0-1-0.4-1.1-0.9C-0.1,9.4,0,8.7,0.4,8.2l9.4-7.9C10.1,0.1,10.5,0,10.9,0l0,0c0,0,0.3,0,0.4,0c2.8,0,35.3,0,41.1,0h5.8
	c1.8,0,1.4,0,1.4,0c0.1,0,0.2,0,0.4,0.1c0.4-0.1,0.9,0,1.2,0.4c0.3,0.3,0.4,0.8,0.3,1.2h0.1v34.2l0,0H61.4L61.4,35.9z M59.1,34.4
	v-14l-8.3,7.5c-0.2,0.2-0.6,0.3-0.9,0.3h-0.1h-38v8.1c0,0.2,0,0.4-0.1,0.6c-0.1,0.2-0.2,0.4-0.4,0.5l-7.8,6.4h46l8.1-7H15.4
	c-0.6,0-1.2-0.5-1.2-1.2s0.5-1.2,1.2-1.2l0,0H59.1z M59.1,17.2V3.9l-7.5,7c-0.3,0.1-0.5,0.1-0.8,0c-0.2,0-0.3,0-0.5,0H11.8v8.2
	c0,0.2-0.2,0.5-0.6,0.8l-6.8,5.8h45l6.9-6.2h-41c-0.6,0-1.2-0.5-1.2-1.2s0.5-1.2,1.2-1.2l0,0h43.8V17.2z M10.7,2.6l-7.1,6h46.3
	c0.1,0,0.1,0,0.2,0c0.9-0.8,4.6-4,7.1-6.2h-4.5H35.5h-0.7C23.1,2.4,14.3,2.5,10.7,2.6L10.7,2.6z"/>
</svg>
