<?xml version="1.0" encoding="utf-8"?>
<!-- Generator: Adobe Illustrator 26.0.1, SVG Export Plug-In . SVG Version: 6.00 Build 0)  -->
<svg version="1.1" id="Layer_1" xmlns="http://www.w3.org/2000/svg" xmlns:xlink="http://www.w3.org/1999/xlink" x="0px" y="0px"
	 viewBox="0 0 56.4 56.4" style="enable-background:new 0 0 56.4 56.4;" xml:space="preserve">
<style type="text/css">
	.st0{fill:#F6A318;}
</style>
<path class="st0" d="M55.4,25.8l-4.7-4.7V4.7H52c0.5,0,0.9-0.4,0.9-0.9s-0.3-0.9-0.8-0.9H52h-9.6c-0.5,0-0.9,0.4-0.9,0.9
	s0.3,0.9,0.8,0.9h0.1h1.3v9.5l-13-13.1C30.1,0.4,29.2,0,28.2,0c-0.9,0-1.8,0.4-2.5,1.1L1.1,25.8c-1.4,1.4-1.4,3.6-0.1,5
	c0,0,0,0,0.1,0.1c1.4,1.4,3.6,1.4,5,0l0.2-0.2v25c0,0.5,0.4,0.9,0.9,0.9h42.2c0.5,0,0.9-0.4,0.9-0.9v-25l0.2,0.2
	c1.4,1.4,3.6,1.4,5,0l0,0c1.4-1.3,1.4-3.5,0.1-4.8C55.5,25.8,55.4,25.8,55.4,25.8z M45.6,4.7H49v14.7l-3.4-3.5V4.7z M22.9,54.8V44.6
	c0-2.9,2.4-5.3,5.4-5.2c2.9,0,5.2,2.4,5.2,5.2v10.1L22.9,54.8L22.9,54.8z M48.5,28.8v25.9H35.3V44.6c0-3.8-3.1-7-7-7
	c-3.8,0-7,3.1-7,7v10.1H7.9V28.8L28.2,8.6L48.5,28.8z M54.2,29.5c-0.7,0.7-1.9,0.7-2.6,0L28.8,6.8c-0.3-0.3-0.9-0.4-1.2,0l0,0
	L4.9,29.5c-0.7,0.7-1.9,0.7-2.6,0s-0.7-1.9,0-2.6L26.9,2.2c0.7-0.7,1.9-0.7,2.6,0l24.7,24.7C54.9,27.6,54.9,28.8,54.2,29.5z"/>
<path class="st0" d="M28.2,29.3L28.2,29.3c3.7,0,6.7-3,6.7-6.7l0,0c0-3.6-2.9-6.6-6.6-6.6l0,0l0,0c-3.6,0-6.6,2.9-6.6,6.6l0,0
	c-0.1,3.6,2.6,6.6,6.2,6.7C28,29.3,28.1,29.3,28.2,29.3z M23.4,23.5h4v4.1C25.3,27.1,23.7,25.5,23.4,23.5z M29.1,27.5v-4.1h4.1
	C32.7,25.5,31.1,27.1,29.1,27.5L29.1,27.5z M33.1,21.7h-4v-4.1C31.1,18.1,32.7,19.7,33.1,21.7L33.1,21.7z M27.3,17.7v4h-4.1
	C23.7,19.7,25.3,18.1,27.3,17.7L27.3,17.7z"/>
<path class="st0" d="M11.4,40h6.4c0.5,0,0.9-0.4,0.9-0.9v-6.4c0-0.5-0.4-0.9-0.9-0.9h-6.4c-0.5,0-0.9,0.4-0.9,0.9v6.4
	C10.5,39.6,10.9,40,11.4,40z M12.3,33.6H17v4.7h-4.7V33.6L12.3,33.6z"/>
<path class="st0" d="M38.3,40.5h6.4c0.5,0,0.9-0.4,0.9-0.9v-6.4c0-0.5-0.4-0.9-0.9-0.9h-6.4c-0.5,0-0.9,0.4-0.9,0.9v6.5
	C37.5,40.1,37.8,40.5,38.3,40.5z M39.2,34.1h4.7v4.7h-4.7V34.1z"/>
<path class="st0" d="M11.4,51.9h6.4c0.5,0,0.9-0.4,0.9-0.9v-6.4c0-0.5-0.4-0.9-0.9-0.9h-6.4c-0.5,0-0.9,0.4-0.9,0.9V51
	C10.6,51.5,10.9,51.9,11.4,51.9z M12.3,45.5H17v4.7h-4.7V45.5L12.3,45.5z"/>
<path class="st0" d="M38.3,51.9h6.4c0.5,0,0.9-0.4,0.9-0.9v-6.4c0-0.5-0.4-0.9-0.9-0.9h-6.4c-0.5,0-0.9,0.4-0.9,0.9V51
	C37.5,51.5,37.8,51.9,38.3,51.9z M39.2,45.5h4.7v4.7h-4.7V45.5z"/>
</svg>
