<?xml version="1.0" encoding="utf-8"?>
<!-- Generator: Adobe Illustrator 26.0.1, SVG Export Plug-In . SVG Version: 6.00 Build 0)  -->
<svg version="1.1" id="Layer_1" xmlns="http://www.w3.org/2000/svg" xmlns:xlink="http://www.w3.org/1999/xlink" x="0px" y="0px"
	 viewBox="0 0 46 46" style="enable-background:new 0 0 46 46;" xml:space="preserve">
<style type="text/css">
	.st0{fill:#F6A318;}
</style>
<path class="st0" d="M44.6,0H1.4C0.6,0,0,0.6,0,1.4l0,0v43.2C0,45.4,0.6,46,1.4,46l0,0h43.2c0.8,0,1.4-0.6,1.4-1.4l0,0V1.4
	C46,0.6,45.4,0,44.6,0z M2.9,8.6h40.3v3.5H2.9V8.6z M2.9,15h40.3v3.5H2.9V15z M43.2,2.9v2.9H2.9V2.9H43.2z M2.9,43.2V21.3h40.3v21.9
	C43.2,43.2,2.9,43.2,2.9,43.2z"/>
</svg>
