<?xml version="1.0" encoding="utf-8"?>
<!-- Generator: Adobe Illustrator 26.0.1, SVG Export Plug-In . SVG Version: 6.00 Build 0)  -->
<svg version="1.1" id="Layer_1" xmlns="http://www.w3.org/2000/svg" xmlns:xlink="http://www.w3.org/1999/xlink" x="0px" y="0px"
	 viewBox="0 0 55.1 51.7" style="enable-background:new 0 0 55.1 51.7;" xml:space="preserve">
<style type="text/css">
	.st0{fill:#F6A318;}
</style>
<g transform="translate(12479.116 -1885.072)">
	<g>
		<path class="st0" d="M-12475,1936.9h-1.7c-0.4,0-0.8-0.3-0.8-0.8v-17.6c0-0.4,0.3-0.8,0.8-0.8s0.8,0.3,0.8,0.8v16.9h0.5l1.5-2.9
			c0.2-0.4,0.6-0.5,1-0.3c0.4,0.2,0.5,0.6,0.3,1l-1.7,3.3C-12474.5,1936.7-12474.7,1936.9-12475,1936.9z"/>
	</g>
	<g>
		<path class="st0" d="M-12426.5,1936.9h-1.7c-0.3,0-0.5-0.2-0.7-0.4l-1.7-3.3c-0.2-0.4,0-0.8,0.3-1c0.4-0.2,0.8,0,1,0.3l1.5,2.9
			h0.5v-16.9c0-0.4,0.3-0.8,0.8-0.8s0.8,0.3,0.8,0.8v17.6C-12425.8,1936.5-12426.1,1936.9-12426.5,1936.9z"/>
	</g>
	<g>
		<path class="st0" d="M-12424.8,1916.7h-53.6c-0.4,0-0.8-0.3-0.8-0.8v-4.2c0-0.4,0.3-0.8,0.8-0.8h53.6c0.4,0,0.8,0.3,0.8,0.8v4.2
			C-12424,1916.4-12424.4,1916.7-12424.8,1916.7z M-12477.6,1915.2h52.1v-2.7h-52.1V1915.2z"/>
	</g>
	<g>
		<path class="st0" d="M-12429.8,1932.7h-43.5c-0.4,0-0.8-0.3-0.8-0.8s0.3-0.8,0.8-0.8h43.5c0.4,0,0.8,0.3,0.8,0.8
			S-12429.4,1932.7-12429.8,1932.7z"/>
	</g>
	<g>
		<path class="st0" d="M-12459.9,1930.2c-0.4,0-0.8-0.3-0.8-0.8v-10.9c0-0.4,0.3-0.8,0.8-0.8s0.8,0.3,0.8,0.8v10.9
			C-12459.2,1929.8-12459.5,1930.2-12459.9,1930.2z"/>
	</g>
	<g>
		<path class="st0" d="M-12443.2,1930.2c-0.4,0-0.8-0.3-0.8-0.8v-10.9c0-0.4,0.3-0.8,0.8-0.8s0.8,0.3,0.8,0.8v10.9
			C-12442.5,1929.8-12442.8,1930.2-12443.2,1930.2z"/>
	</g>
	<g>
		<path class="st0" d="M-12426.5,1932.7h-50.2c-0.4,0-0.8-0.3-0.8-0.8s0.3-0.8,0.8-0.8h50.2c0.4,0,0.8,0.3,0.8,0.8
			S-12426.1,1932.7-12426.5,1932.7z"/>
	</g>
	<g>
		<path class="st0" d="M-12431.9,1907.6h-39.3c-0.4,0-0.8-0.3-0.8-0.8v-20.9c0-0.4,0.3-0.8,0.8-0.8h39.3c0.4,0,0.8,0.3,0.8,0.8v20.9
			C-12431.2,1907.2-12431.5,1907.6-12431.9,1907.6z M-12470.5,1906.1h37.8v-19.4h-37.8V1906.1z"/>
	</g>
	<g>
		<path class="st0" d="M-12464.5,1910.1c-0.2,0-0.4-0.1-0.5-0.2c-0.3-0.3-0.3-0.8,0-1.1l2.5-2.5c0.3-0.3,0.8-0.3,1.1,0
			s0.3,0.8,0,1.1l-2.5,2.5C-12464.1,1910-12464.3,1910.1-12464.5,1910.1z"/>
	</g>
	<g>
		<path class="st0" d="M-12439.4,1910.1c-0.2,0-0.4-0.1-0.5-0.2l-2.5-2.5c-0.3-0.3-0.3-0.8,0-1.1s0.8-0.3,1.1,0l2.5,2.5
			c0.3,0.3,0.3,0.8,0,1.1C-12439,1910-12439.2,1910.1-12439.4,1910.1z"/>
	</g>
	<g>
		<path class="st0" d="M-12443.2,1925.1h-16.7c-0.4,0-0.8-0.3-0.8-0.8s0.3-0.8,0.8-0.8h16.7c0.4,0,0.8,0.3,0.8,0.8
			S-12442.8,1925.1-12443.2,1925.1z"/>
	</g>
	<g>
		<path class="st0" d="M-12463.3,1920.9c-0.4,0-0.8-0.3-0.8-0.8s0.3-0.8,0.7-0.8h0c0.4,0,0.8,0.3,0.8,0.8
			S-12462.9,1920.9-12463.3,1920.9z"/>
	</g>
	<g>
		<path class="st0" d="M-12439.9,1920.9c-0.4,0-0.8-0.3-0.8-0.8s0.3-0.8,0.7-0.8h0c0.4,0,0.8,0.3,0.8,0.8
			S-12439.5,1920.9-12439.9,1920.9z"/>
	</g>
</g>
</svg>
