<?xml version="1.0" encoding="utf-8"?>
<!-- Generator: Adobe Illustrator 26.0.1, SVG Export Plug-In . SVG Version: 6.00 Build 0)  -->
<svg version="1.1" id="Layer_1" xmlns="http://www.w3.org/2000/svg" xmlns:xlink="http://www.w3.org/1999/xlink" x="0px" y="0px"
	 viewBox="0 0 41.8 56.8" style="enable-background:new 0 0 41.8 56.8;" xml:space="preserve">
<style type="text/css">
	.st0{fill:#F6A318;}
</style>
<path class="st0" d="M39.5,15.5c-1.1-1.1-1.7-2.5-1.7-4.1c0-4.2-3.4-7.6-7.6-7.6c-1.5,0-3-0.6-4.1-1.7c-3-3-7.7-3-10.7,0
	c-1.1,1.1-2.5,1.7-4.1,1.7c-4.2,0-7.6,3.4-7.6,7.6c0,1.5-0.6,3-1.7,4.1c-2.9,3-2.9,7.7,0,10.7c1.1,1.1,1.7,2.5,1.7,4.1
	c0,3.4,2.2,6.3,5.4,7.3L4.9,54l6.6-3.7l3.9,6.5l4.1-15.1c0.9,0.2,1.8,0.2,2.7,0l4.1,15.1l3.9-6.5l6.6,3.7l-4.4-16.4
	c3.2-1,5.4-3.9,5.4-7.3c0-1.5,0.6-3,1.7-4.1l0,0C42.5,23.3,42.5,18.5,39.5,15.5z M17.8,41.1l-3,11.1l-2.6-4.3l-4.4,2.5L11.1,38
	c0.1,0,0.2,0,0.3,0c1.5,0,3,0.6,4.1,1.7l0,0c0.2,0.2,0.4,0.3,0.5,0.5l0.2,0.1c0.1,0.1,0.3,0.2,0.4,0.3s0.2,0.1,0.2,0.2
	c0.1,0.1,0.2,0.1,0.4,0.2c0.1,0.1,0.2,0.1,0.3,0.2C17.7,41,17.7,41.1,17.8,41.1z M30.7,37.9L34,50.3l-4.4-2.5L27,52.2l-3-11.1
	c0.1,0,0.1-0.1,0.2-0.1c0.1-0.1,0.2-0.1,0.3-0.2s0.2-0.1,0.3-0.2c0.1-0.1,0.2-0.1,0.3-0.2c0.1-0.1,0.3-0.2,0.4-0.3
	c0.1,0,0.1-0.1,0.2-0.1c0.2-0.2,0.4-0.3,0.5-0.5c1.1-1.1,2.5-1.7,4.1-1.7C30.4,37.9,30.5,37.9,30.7,37.9z M38.3,25
	c-1.4,1.4-2.2,3.3-2.2,5.4c0,2.7-1.9,5.1-4.6,5.6h-0.3c-0.2,0-0.3,0-0.4,0.1s-0.3,0-0.4,0c-0.7,0-1.5,0.1-2.2,0.3
	c-1.2,0.4-2.3,1-3.1,1.9c-0.2,0.2-0.3,0.3-0.5,0.4c-0.1,0-0.1,0.1-0.2,0.1C24.3,38.9,24.2,39,24,39c-0.1,0-0.1,0.1-0.2,0.1
	c-0.1,0.1-0.3,0.1-0.4,0.2c-0.1,0-0.1,0-0.2,0.1c-0.2,0.1-0.3,0.1-0.5,0.2h-0.1h-0.1c-1.1,0.3-2.2,0.3-3.2,0h-0.1h-0.1
	c-0.2-0.1-0.4-0.1-0.5-0.2c0,0-0.1,0-0.1-0.1c-0.1-0.1-0.3-0.1-0.4-0.2L17.9,39c-0.1-0.1-0.3-0.2-0.4-0.3c-0.1,0-0.1-0.1-0.1-0.1
	c-0.2-0.1-0.3-0.3-0.5-0.4c-0.9-0.9-2-1.5-3.1-1.9c-0.7-0.2-1.5-0.3-2.2-0.3c-0.2,0-0.3,0-0.4,0s-0.3,0-0.4-0.1h-0.3
	c-2.7-0.6-4.6-2.9-4.6-5.6c0-2-0.8-3.9-2.2-5.4c-2.2-2.2-2.3-5.9,0-8.1l0,0c1.4-1.4,2.2-3.3,2.2-5.4c0-3.2,2.6-5.7,5.7-5.7
	c2,0,3.9-0.8,5.4-2.2c2.3-2.2,5.9-2.2,8.1,0c1.4,1.4,3.3,2.2,5.4,2.2c3.2,0,5.7,2.6,5.7,5.7c0,2,0.8,3.9,2.2,5.4
	C40.5,19.1,40.5,22.7,38.3,25L38.3,25z"/>
<path class="st0" d="M20.9,7.3c-7.5,0-13.6,6.1-13.6,13.6s6.1,13.6,13.6,13.6s13.6-6.1,13.6-13.6l0,0C34.5,13.4,28.4,7.3,20.9,7.3z
	 M20.9,32.7c-6.5,0-11.8-5.3-11.8-11.8S14.4,9.1,20.9,9.1s11.8,5.3,11.8,11.8S27.4,32.7,20.9,32.7z"/>
<path class="st0" d="M20.9,11.6l-2,6.2h-6.6l5.3,3.9l-2,6.2l5.3-3.9l5.3,3.9l-2-6.2l5.3-3.9h-6.6L20.9,11.6z M22.7,23.2l-1.9-1.4
	L19,23.2l0.7-2.2l-1.9-1.4h2.3l0.7-2.2l0.7,2.2h2.3L22,21L22.7,23.2z"/>
</svg>
