<?xml version="1.0" encoding="utf-8"?>
<!-- Generator: Adobe Illustrator 26.0.1, SVG Export Plug-In . SVG Version: 6.00 Build 0)  -->
<svg version="1.1" id="Layer_1" xmlns="http://www.w3.org/2000/svg" xmlns:xlink="http://www.w3.org/1999/xlink" x="0px" y="0px"
	 viewBox="0 0 51.8 64.7" style="enable-background:new 0 0 51.8 64.7;" xml:space="preserve">
<style type="text/css">
	.st0{fill:#F6A318;}
</style>
<path class="st0" d="M49.1,11.5c-7.5-0.6-14.5-3.8-19.8-9.1L27.9,1c-1.1-1.1-2.9-1.1-4.1,0l-1.4,1.4c-5.3,5.3-12.3,8.5-19.8,9.1
	C1.1,11.6,0,12.8,0,14.3v8.2c0,17.3,9.4,33.3,24.5,41.9c0.4,0.2,0.9,0.4,1.4,0.3c0.5,0,1-0.1,1.4-0.3c15.1-8.6,24.4-24.5,24.4-41.9
	v-8.2C51.7,12.8,50.6,11.6,49.1,11.5z M17.5,15.2c2.2,0.9,4.1,2.6,5.1,4.8c0-0.1,0.1-0.1,0.1-0.2c0.2-1,0.5-2.9,1.5-3.3l0.3,0.7
	c-0.4,0.2-0.7,1-0.9,1.8c1.1-0.7,2.5-0.7,3.6,0c-0.2-0.8-0.5-1.6-0.9-1.8l0.3-0.7c1,0.4,1.4,2.3,1.5,3.3c0,0.1,0.1,0.1,0.1,0.2
	c1-2.2,2.8-3.9,5.1-4.8l0.2,0.7c0,0-3.8,1.5-4.9,5.1c0.3,0.6,0.4,1.4,0.4,2.1c0,2.6-3.1,4.7-3.7,4.7c-0.6,0-3.6-2.1-3.6-4.7
	c0-0.7,0.2-1.4,0.4-2.1c-1-3.6-4.9-5.1-4.9-5.1L17.5,15.2z M31.4,29.5l-3.5,3.8c0,0.2,0.1,0.4,0.1,0.6l5.3,2.2l0.7,6.1l1.3,2.7
	l-0.6,0.3l-1.4-2.8l-0.7-5.6l-4.5-1.9c0.2,0.8,0.4,1.4,0.5,1.9c0.7,2.2,2.1,6.3,0.6,8.1L29.1,45c-0.2,1.6-1,3.1-2.3,4.1
	c-0.5,0.8-0.9,1.3-1.5,1.3c-0.6,0-1-0.6-1.5-1.3c-1.2-1-2.1-2.5-2.3-4.1l-0.1-0.1c-1.5-1.8-0.1-5.9,0.6-8.1c0.1-0.4,0.3-1.1,0.5-1.9
	L18,36.7l-0.7,5.9l-1.4,2.6l-0.6-0.3l1.4-2.6l0.7-6.1l5.3-2.2c0-0.2,0.1-0.4,0.1-0.6l-3.5-3.8c-2.2-0.7-4.4-1.5-6.6-2.4l0.3-0.7
	c2.1,1,4.3,1.7,6.6,2.4h0.1l3.3,3.6c0.1-0.7,0.3-1.4,0.4-2.1l-3.6-4.6v-0.1c-0.5-1.9-1.8-3.5-3.5-4.5l0.3-0.6c2,1.1,3.4,2.9,3.9,5
	l3.1,4c0.1-0.6,0.2-1.2,0.3-1.6c0.4,0.3,0.9,0.5,1.4,0.6c0.5-0.1,1-0.3,1.4-0.6c0.1,0.4,0.2,1,0.3,1.6l3.1-4c0.6-2.2,2-4,3.9-5
	l0.3,0.5c-1.7,0.9-3,2.6-3.5,4.5v0.1l-3.5,4.6c0.1,0.7,0.3,1.4,0.4,2.1l3.3-3.6h0.1c2.2-0.7,4.4-1.5,6.6-2.4l0.3,0.7
	C35.9,28,33.7,28.8,31.4,29.5z"/>
</svg>
