<?xml version="1.0" encoding="utf-8"?>
<!-- Generator: Adobe Illustrator 26.0.1, SVG Export Plug-In . SVG Version: 6.00 Build 0)  -->
<svg version="1.1" id="Layer_1" xmlns="http://www.w3.org/2000/svg" xmlns:xlink="http://www.w3.org/1999/xlink" x="0px" y="0px"
	 viewBox="0 0 68.6 68.6" style="enable-background:new 0 0 68.6 68.6;" xml:space="preserve">
<style type="text/css">
	.st0{fill:#F6A318;stroke:#F6A318;stroke-miterlimit:10;}
	.st1{fill:none;stroke:#F6A318;stroke-miterlimit:10;}
</style>
<g>
	<path class="st0" d="M34.5,0.5C15.8,0.5,0.7,15.6,0.7,34.3s15.1,33.8,33.8,33.8c18.7,0,33.8-15.1,33.8-33.8S53.1,0.5,34.5,0.5
		L34.5,0.5z M34.5,66.5c-17.8,0-32.2-14.4-32.2-32.2S16.7,2.1,34.5,2.1c17.8,0,32.2,14.4,32.2,32.2S52.3,66.5,34.5,66.5L34.5,66.5
		L34.5,66.5z"/>
	<path class="st0" d="M57.5,17.1c-0.3-0.4-0.8-0.7-1.4-0.8c-0.5,0-1.1,0.2-1.5,0.5L34.4,37l0,0l-12,12l0,0l0,0l-5.2,5.2
		c-0.7,0.7-0.7,1.9,0,2.7c0.1,0.1,0.1,0.1,0.2,0.2c5,3.7,11,5.7,17.2,5.7c0.6,0,1.2,0,1.8-0.1c14.8-1,26.4-13.1,26.8-27.9
		C63.3,28.6,61.3,22.3,57.5,17.1L57.5,17.1z M49.8,38.4c0,8.5-6.9,15.4-15.4,15.4c-3.8,0-7.6-1.4-10.4-4l11.3-11.3
		c0.7-0.3,1.4-0.5,2.1-0.8c5.2-2,9.7-3.7,12.2-1.5C49.8,36.9,49.8,37.6,49.8,38.4z M38.2,35.6l7.6-7.6c1.6,1.7,2.7,3.7,3.4,6
		C46.3,32.8,42.4,34.1,38.2,35.6z M61.5,35c-0.4,14.9-12.8,26.7-27.8,26.4c-5.6-0.1-11-2-15.5-5.4c-0.1,0-0.1-0.1-0.1-0.2
		c0-0.1,0-0.2,0.1-0.2l4.7-4.7c2.8,2.6,6.5,4.2,10.3,4.5c0.4,0,0.8,0,1.2,0c9.4,0,17-7.6,17-17c0-4.3-1.6-8.4-4.5-11.5l8.8-8.8
		c0.1-0.1,0.1-0.1,0.2-0.1l0,0c0.1,0,0.2,0,0.2,0.1C59.8,23,61.7,28.9,61.5,35L61.5,35z"/>
	<path class="st0" d="M52.1,14.3L52.1,14.3c0.7-0.7,0.7-1.9,0-2.7c-0.1-0.1-0.1-0.1-0.2-0.2c-5-3.9-11.1-5.9-17.4-5.9
		C18.7,5.5,5.8,18.3,5.8,34.2c0,6.3,2.1,12.4,5.9,17.4c0.3,0.4,0.8,0.7,1.4,0.7h0.1c0.5,0,1-0.2,1.3-0.6L52.1,14.3z M20.1,44
		c-0.6-1.5-0.9-3.1-1-4.7c0-0.2,0-0.4,0-0.5c1.3,1,2.9,1.6,4.5,1.8L20.1,44z M19.2,36.8c0.6-5.4,3.9-10.1,8.9-12.4
		c1.5-0.7,2.5-2.3,2.5-3.9v-5.1c0-0.3,0.2-0.5,0.5-0.5l0,0h6.8c0.3,0,0.5,0.2,0.5,0.5l0,0v5.1c0,1.4,0.7,2.7,1.8,3.5L25,39.1
		C22.8,39.1,20.8,38.3,19.2,36.8z M13.4,50.8c-0.1,0.1-0.1,0.1-0.2,0.1s-0.2,0-0.2-0.1c-3.6-4.7-5.6-10.5-5.6-16.4
		c0-14.9,12.1-27.1,27.1-27.1c5.9,0,11.7,1.9,16.4,5.6c0.1,0,0.1,0.1,0.1,0.2c0,0.1,0,0.2-0.1,0.2l0,0l-9.6,9.6
		c-0.8-0.5-1.3-1.4-1.4-2.4v-5.1c0-1.2-1-2.1-2.1-2.1H31c-1.2,0-2.1,1-2.1,2.1v5.1c0,1.1-0.6,2-1.6,2.5c-5.6,2.6-9.4,8-9.9,14.1
		c-0.1,0.8-0.1,1.6,0,2.4c0.1,2,0.6,4,1.4,5.8L13.4,50.8z"/>
	<path class="st1" d="M25.7,30.9c-0.9,0-1.7,0.8-1.7,1.7s0.8,1.7,1.7,1.7c0.9,0,1.7-0.8,1.7-1.7l0,0C27.4,31.6,26.6,30.9,25.7,30.9
		L25.7,30.9z"/>
	<path class="st0" d="M41.4,40.7c-1.9,0-3.4,1.5-3.4,3.4s1.5,3.4,3.4,3.4s3.4-1.5,3.4-3.4S43.3,40.7,41.4,40.7L41.4,40.7z
		 M41.4,45.9c-1,0-1.8-0.8-1.8-1.8s0.8-1.8,1.8-1.8s1.8,0.8,1.8,1.8C43.2,45.1,42.4,45.9,41.4,45.9L41.4,45.9z"/>
</g>
</svg>
