<?xml version="1.0" encoding="utf-8"?>
<!-- Generator: Adobe Illustrator 26.0.1, SVG Export Plug-In . SVG Version: 6.00 Build 0)  -->
<svg version="1.1" id="Layer_1" xmlns="http://www.w3.org/2000/svg" xmlns:xlink="http://www.w3.org/1999/xlink" x="0px" y="0px"
	 viewBox="0 0 76.5 42.9" style="enable-background:new 0 0 76.5 42.9;" xml:space="preserve">
<style type="text/css">
	.st0{fill:#F6A318;}
</style>
<g transform="translate(0 -112.5)">
	<path class="st0" d="M74.5,137.6c-0.3-0.5-1-0.7-1.6-0.3s-0.7,1-0.3,1.6c0,0,0,0,0,0.1c2.9,4.1,1.8,9.7-2.2,12.6s-9.7,1.8-12.6-2.2
		s-1.8-9.7,2.2-12.6c2.6-1.8,6-2.1,9-0.8c0.6,0.3,1.2,0.1,1.5-0.5s0.1-1.2-0.5-1.5c0,0,0,0-0.1,0c-1.5-0.7-3.1-1-4.7-1h-3.4
		c5-3.7,6-10.8,2.3-15.8c-2.1-2.9-5.5-4.5-9-4.5H39c-0.6,0-1.1,0.5-1.1,1.2c0,0.6,0.5,1.1,1.1,1.1h9.3c-3.6,2.7-5.2,7.2-4.3,11.5
		h-4.8c-0.6,0-1.1,0.5-1.1,1.2c0,0.6,0.5,1.1,1.1,1.1h5.6c0.8,1.7,2,3.2,3.5,4.3H31.8c-0.6,0-1.1,0.5-1.1,1.2c0,0.6,0.5,1.1,1.1,1.1
		h6.3c-1.4,1.1-2.6,2.4-3.4,4H19.1c-0.6,0-1.1,0.5-1.1,1.2c0,0.6,0.5,1.1,1.1,1.1H34c-0.4,1.8-0.5,3.6,0,5.4h-6.8
		c-0.6,0-1.1,0.5-1.1,1.2c0,0.6,0.5,1.1,1.1,1.1h7.6c0.8,1.7,2,3.1,3.4,4.2H22c-0.6,0-1.1,0.5-1.1,1.2c0,0.6,0.5,1.1,1.1,1.1h43.3
		c6.2,0,11.3-5.1,11.3-11.3C76.5,141.8,75.8,139.5,74.5,137.6L74.5,137.6z M46,123.8c0-5,4-9,9-9s9,4,9,9s-4,9-9,9l0,0
		C50.1,132.8,46,128.8,46,123.8z M58.5,135.1c-1.5,1.1-2.6,2.5-3.4,4.1c-0.8-1.6-2-3.1-3.4-4.1H58.5z M35.9,144.1c0-5,4-9,9-9
		s9,4,9,9s-4,9-9,9l0,0C39.9,153.1,35.9,149.1,35.9,144.1z M51.6,153.1c1.5-1.1,2.6-2.5,3.4-4.1c0.8,1.6,2,3.1,3.4,4.1H51.6z"/>
	<path class="st0" d="M62.8,140.2c0.5-0.3,0.7-1,0.4-1.5s-1-0.7-1.5-0.4c0,0,0,0-0.1,0c-2,1.2-3.2,3.4-3.2,5.8c0,3,2,5.6,4.8,6.5
		c0.6,0.2,1.2-0.2,1.4-0.7c0.2-0.6-0.2-1.2-0.7-1.4l0,0c-1.9-0.6-3.2-2.4-3.2-4.4C60.7,142.5,61.5,141,62.8,140.2z"/>
	<path class="st0" d="M68,147.7c-0.5,0.4-0.6,1.1-0.2,1.6s1.1,0.6,1.6,0.2l0,0c3-2.3,3.6-6.5,1.3-9.5c-0.4-0.6-1-1.1-1.6-1.5
		c-0.5-0.4-1.2-0.2-1.6,0.3s-0.2,1.2,0.3,1.6l0,0c2.1,1.4,2.6,4.2,1.2,6.3C68.7,147.1,68.4,147.4,68,147.7L68,147.7z"/>
	<path class="st0" d="M16.7,153.1H8.6c-1.5-0.1-2.9-0.7-4-1.7c-0.7-0.7-1.2-1.5-1.6-2.4h12.2c0.6,0,1.1-0.5,1.1-1.2
		c0-0.6-0.5-1.1-1.1-1.1H2.4c-0.3-1.8-0.2-3.6,0.1-5.4h8.3c0.6,0,1.1-0.5,1.2-1.1c0-0.6-0.5-1.1-1.1-1.2c0,0,0,0-0.1,0H3.2
		c0.9-2.3,3-3.9,5.4-4h18c0.6,0,1.1-0.5,1.1-1.2c0-0.6-0.5-1.1-1.1-1.1c-0.2-0.1-9.4,0.1-9.6-0.1c-2.3-0.4-4.3-2-5-4.3h20
		c0.6,0,1.1-0.5,1.2-1.1c0-0.6-0.5-1.1-1.1-1.2c0,0,0,0-0.1,0H11.4c-0.2-1.6-0.2-3.3,0-4.9h14.5c0.6,0,1.1-0.5,1.1-1.2
		c0-0.6-0.5-1.1-1.1-1.1H12c0.8-2.4,3-4.2,5.6-4.3h16.2c0.6,0,1.1-0.5,1.2-1.1c0-0.6-0.5-1.1-1.1-1.2c0,0,0,0-0.1,0H17.6
		c-1.6,0.1-3.1,0.6-4.4,1.5c-1.9,1.3-4.2,4.1-4.2,9.8c0,4.7,1.5,7.4,3.3,9H8.6c-1.6,0.1-3.1,0.6-4.4,1.5c-1.9,1.3-4.2,4.1-4.2,9.9
		c0,3.9,1,6.9,3,8.8c1.5,1.4,3.5,2.3,5.5,2.3h8.1c0.6,0,1.1-0.5,1.2-1.1C17.9,153.7,17.4,153.2,16.7,153.1L16.7,153.1L16.7,153.1z"
		/>
	<path class="st0" d="M41.4,149.9c0.5,0.3,1.2,0.2,1.5-0.3s0.2-1.2-0.3-1.5l0,0c-2.1-1.2-2.8-3.8-1.7-6c0.3-0.6,0.1-1.2-0.5-1.5
		s-1.2-0.1-1.5,0.5C37.2,144.2,38.3,148.1,41.4,149.9L41.4,149.9z"/>
	<path class="st0" d="M44.9,139.5c2.5,0,4.6,2,4.6,4.6c0,1.8-1.1,3.5-2.8,4.2c-0.6,0.3-0.8,0.9-0.6,1.5c0.2,0.5,0.9,0.8,1.4,0.6
		c3.5-1.5,5.1-5.5,3.6-8.9c-1.1-2.5-3.5-4.1-6.3-4.1c-0.6,0-1.1,0.5-1.1,1.2C43.8,139,44.3,139.5,44.9,139.5z"/>
	<path class="st0" d="M55.1,119.2c0.6,0,1.1-0.5,1.1-1.2c0-0.6-0.5-1.1-1.1-1.1c-3.8,0-6.8,3-6.8,6.8c0,1,0.2,2,0.7,2.9
		c0.3,0.5,1,0.8,1.5,0.5s0.7-0.9,0.5-1.4c-0.3-0.6-0.5-1.3-0.5-2C50.5,121.3,52.5,119.2,55.1,119.2z"/>
	<path class="st0" d="M60.7,122.7c-0.6,0-1.1,0.5-1.1,1.1l0,0c0,2.5-2,4.6-4.6,4.6c-0.5,0-0.9-0.1-1.4-0.2c-0.6-0.2-1.2,0.1-1.4,0.7
		c-0.2,0.6,0.1,1.2,0.7,1.4c0,0,0,0,0.1,0c3.6,1.2,7.4-0.8,8.6-4.4c0.2-0.7,0.3-1.4,0.3-2.1C61.9,123.2,61.4,122.7,60.7,122.7
		L60.7,122.7z"/>
	<path class="st0" d="M30.9,120.2c0,0.6,0.5,1.1,1.1,1.1l0,0h4.5c0.6,0,1.1-0.5,1.1-1.2c0-0.6-0.5-1.1-1.1-1.1H32
		C31.4,119.1,30.9,119.6,30.9,120.2z"/>
</g>
</svg>
